<?xml version="1.0" encoding="UTF-8"?>
<svg version="1.1" xmlns="http://www.w3.org/2000/svg" width="1024" height="1024">
<path d="M0 0 C4.47759658 -0.61430441 8.54190427 -0.83748877 13 0 C16.50887055 2.82461343 18.68924147 6.16585251 21 10 C22.31191675 12.01712125 23.64112242 14.01394815 25 16 C25.66 16 26.32 16 27 16 C27.08894531 16.6909375 27.17789062 17.381875 27.26953125 18.09375 C28.17326415 21.6893504 29.77567583 24.3245511 31.6875 27.5 C35.6159775 34.1417602 38.89873102 40.92816695 42 48 C42.66 48 43.32 48 44 48 C44.0928125 49.5159375 44.0928125 49.5159375 44.1875 51.0625 C44.67693482 55.01876478 45.82141843 58.44828956 47.1875 62.1875 C71.97258656 132.83924099 59.10256924 220.51056546 28 287 C25.97584428 290.91386022 23.88343158 294.7907366 21.60375977 298.56225586 C18.95630292 303.15074388 18.6481305 305.9000288 20 311 C20.8447339 313.15460609 21.76605121 315.2803049 22.75 317.375 C32.05322187 338.29811186 35.21703322 361.19534939 34 384 C33.95746094 384.79905762 33.91492188 385.59811523 33.87109375 386.42138672 C33.15625314 398.20938324 31.27492926 409.57757838 28.67700195 421.09423828 C28.46132568 422.05313965 28.24564941 423.01204102 28.0234375 424 C27.82669434 424.845625 27.62995117 425.69125 27.42724609 426.5625 C26.9132835 429.02896718 26.9132835 429.02896718 27.06103516 431.6875 C27 434 27 434 25 436 C24.21043583 437.85450666 24.21043583 437.85450666 23.5546875 440.0078125 C23.2863208 440.8225 23.0179541 441.6371875 22.74145508 442.4765625 C22.4555249 443.35054687 22.16959473 444.22453125 21.875 445.125 C19.56231991 451.95508642 17.03476833 458.54480871 13.8125 465 C13.49200684 465.6511377 13.17151367 466.30227539 12.84130859 466.97314453 C11.0092766 470.532332 9.30753339 473.67807528 6 476 C2.81326857 476.17581967 0.91904508 475.72034014 -1.61474609 473.734375 C-3.37612536 472.04662588 -5.03516885 470.29456182 -6.6875 468.5 C-12.4535873 462.48569608 -18.4514936 457.16119319 -25 452 C-25.88042969 451.25234375 -26.76085937 450.5046875 -27.66796875 449.734375 C-36.68214851 442.08598005 -46.34663187 434.81936326 -58 432 C-61.33364751 432.72539034 -61.33364751 432.72539034 -62.69140625 436.23828125 C-62.99103271 436.89223877 -63.29065918 437.54619629 -63.59936523 438.2199707 C-68.37432582 448.59416263 -68.37432582 448.59416263 -73.9375 450.8125 C-76.47265625 451.51953125 -76.47265625 451.51953125 -79 452 C-80.6250385 452.33314561 -82.25004041 452.66646971 -83.875 453 C-84.57367187 453.103125 -85.27234375 453.20625 -85.9921875 453.3125 C-90.12926204 454.72908583 -91.80006664 457.61265707 -93.74609375 461.3828125 C-94.60946212 463.26039061 -95.4467644 465.14640622 -96.26757812 467.04296875 C-98.42149855 471.68597341 -98.42149855 471.68597341 -101.12915039 473.15576172 C-104.67990149 474.19994042 -108.1387876 474.45625532 -111.8125 474.625 C-112.50537109 474.66367187 -113.19824219 474.70234375 -113.91210938 474.7421875 C-115.60767015 474.83573568 -117.30379712 474.91892364 -119 475 C-119.28721924 476.27004883 -119.57443848 477.54009766 -119.87036133 478.84863281 C-120.94810458 483.61261288 -122.02763151 488.37618735 -123.10766602 493.13964844 C-123.57266225 495.19162351 -124.03719067 497.24370465 -124.5012207 499.29589844 C-125.17272492 502.2652626 -125.84572566 505.23428227 -126.51953125 508.203125 C-126.73642609 509.16037476 -126.95332092 510.11762451 -127.17678833 511.10388184 C-128.51951119 516.99616916 -129.93786657 522.85499809 -131.52612305 528.68652344 C-132.09509732 530.97365125 -132.09509732 530.97365125 -131.88598633 533.24316406 C-131.99491247 535.87698411 -132.43408438 537.50561395 -133.30078125 539.96069336 C-135.44752272 546.06356594 -136.78046418 552.32167234 -138.1875 558.62890625 C-138.48912992 559.9651365 -138.7911884 561.30127006 -139.09364319 562.63731384 C-139.73472107 565.47296183 -140.37303122 568.30921221 -141.00906372 571.14599609 C-142.00854662 575.60357559 -143.01427823 580.05972987 -144.02124023 584.515625 C-145.04084255 589.02846491 -146.06021522 593.5413549 -147.07749939 598.05471802 C-151.11648384 615.97240952 -155.22680556 633.87365917 -159.34281921 651.77378845 C-160.43433562 656.5239602 -161.51644551 661.27605853 -162.5859375 666.03125 C-164.01454591 672.36451154 -165.49302276 678.68496914 -167 685 C-167.19895874 685.83638 -167.39791748 686.67276001 -167.60290527 687.53448486 C-179.36351755 736.90080333 -179.36351755 736.90080333 -188 758 C-188.49109806 759.28277932 -188.97964113 760.56654167 -189.46484375 761.8515625 C-195.78346852 777.78548583 -204.93679167 792.92603043 -216 806 C-216.76739502 806.91531494 -216.76739502 806.91531494 -217.55029297 807.84912109 C-228.38799723 820.74744715 -228.38799723 820.74744715 -231 823 C-231.66 823 -232.32 823 -233 823 C-233 823.66 -233 824.32 -233 825 C-234.81649996 826.62045275 -236.62538342 828.09730213 -238.5625 829.5625 C-239.14241699 830.00360107 -239.72233398 830.44470215 -240.31982422 830.89916992 C-252.60967695 840.06334601 -265.7726907 847.12309346 -280.375 851.8125 C-281.39291626 852.14169434 -281.39291626 852.14169434 -282.43139648 852.47753906 C-286.049939 853.58955486 -289.21163891 854.25597034 -293 854 C-293.33 854.66 -293.66 855.32 -294 856 C-300.90507881 856.05068981 -307.81010966 856.08572927 -314.71533203 856.10986328 C-317.06463413 856.11992384 -319.41392369 856.13357373 -321.76318359 856.15087891 C-325.13902885 856.17512452 -328.5147086 856.18648259 -331.890625 856.1953125 C-333.46738007 856.21079636 -333.46738007 856.21079636 -335.07598877 856.22659302 C-336.54706085 856.22681961 -336.54706085 856.22681961 -338.04785156 856.22705078 C-338.90944885 856.231492 -339.77104614 856.23593323 -340.65875244 856.24050903 C-343.22579131 855.97680517 -344.75659635 855.23651637 -347 854 C-348.9598571 853.37407705 -350.92057229 852.75051731 -352.88818359 852.14941406 C-371.85638613 846.27648153 -388.68023578 836.94860566 -401 821 C-401.58265625 820.25363281 -402.1653125 819.50726562 -402.765625 818.73828125 C-409.45047422 809.7137348 -416.70582684 797.64614283 -416 786 C-416.66 785.67 -417.32 785.34 -418 785 C-418.67548951 758.54332755 -412.57008133 736.99236438 -395 717 C-394.21625 715.948125 -393.4325 714.89625 -392.625 713.8125 C-387.21083765 708.01161177 -380.31759444 703.09933296 -373 700 C-369.25 700.625 -369.25 700.625 -366 702 C-364 705 -364 705 -364.1875 708.28515625 C-365.01585136 712.07247423 -366.24541639 714.99159902 -368 718.4375 C-370.44807085 723.51476388 -371.68935033 727.40830593 -372 733 C-372.33 733.99 -372.66 734.98 -373 736 C-374.26772167 746.57820212 -371.31017031 757.22232238 -365.3125 765.9375 C-355.02038532 778.8930085 -341.43391953 784.41041645 -325.29296875 786.3203125 C-306.80883227 787.17211602 -290.39285979 779.39337074 -276.65234375 767.58984375 C-269.23890151 760.35109234 -263.33182802 752.03138962 -258.1875 743.0625 C-257.85089355 742.47976318 -257.51428711 741.89702637 -257.16748047 741.29663086 C-249.65203865 727.58195919 -246.02338995 713.05759855 -242.5625 697.9375 C-242.08573224 695.89250388 -241.607939 693.84774658 -241.12915039 691.80322266 C-240.18185099 687.7505817 -239.24091879 683.69655031 -238.30566406 679.64111328 C-237.15830212 674.67134366 -235.98748676 669.70753128 -234.8046875 664.74609375 C-234.18172714 662.1225295 -233.55966874 659.49875217 -232.9375 656.875 C-232.66301025 655.72378662 -232.38852051 654.57257324 -232.10571289 653.38647461 C-230.67155428 647.26444148 -229.48334299 641.1846674 -228.62719727 634.95361328 C-227.98153005 631.91302082 -226.92940392 629.17158098 -225.80476379 626.28094482 C-224.23860834 621.84198497 -223.27499106 617.24261882 -222.22265625 612.66015625 C-221.97003525 611.57979599 -221.71741425 610.49943573 -221.45713806 609.38633728 C-220.65391092 605.94620373 -219.85805193 602.50441567 -219.0625 599.0625 C-218.53239547 596.78569212 -218.00180076 594.5089983 -217.47070312 592.23242188 C-216.44536453 587.83571868 -215.42462708 583.43798403 -214.40673828 579.03955078 C-213.53091972 575.26295085 -212.64119807 571.49038072 -211.72998047 567.72216797 C-211.5406041 566.93514999 -211.35122772 566.14813202 -211.15611267 565.33726501 C-210.81242097 563.91361505 -210.46519512 562.49081108 -210.11354065 561.06910706 C-209.34970934 557.89660475 -209 555.3000611 -209 552 C-208.34 552 -207.68 552 -207 552 C-206.87818359 550.31197266 -206.87818359 550.31197266 -206.75390625 548.58984375 C-205.88024567 540.78463606 -203.78813209 533.18119854 -201.9375 525.5625 C-201.53236002 523.87685283 -201.12782794 522.19105945 -200.72387695 520.50512695 C-199.89405744 517.04298036 -199.06198511 513.58138677 -198.22851562 510.12011719 C-196.52322901 503.0265939 -194.85463669 495.9244934 -193.18826294 488.82174683 C-192.55251162 486.11218084 -191.9154989 483.40291224 -191.27845764 480.69364929 C-190.83051013 478.78847673 -190.38278279 476.8832524 -189.93505859 474.97802734 C-188.29155334 467.98499548 -186.64558928 460.99254169 -185 454 C-185.96715942 453.73110962 -185.96715942 453.73110962 -186.95385742 453.45678711 C-193.02981568 451.751901 -198.68852888 449.49725156 -204.43359375 446.890625 C-207.06839152 445.68403235 -207.06839152 445.68403235 -210 447 C-210.66 447.33 -211.32 447.66 -212 448 C-212 446.02 -212 444.04 -212 442 C-215.91063224 440.52952664 -215.91063224 440.52952664 -220 440 C-220.89635331 432.16296501 -221.19386419 425.61399923 -219 418 C-219.721875 417.566875 -220.44375 417.13375 -221.1875 416.6875 C-222.115625 416.130625 -223.04375 415.57375 -224 415 C-225.3303125 414.2884375 -225.3303125 414.2884375 -226.6875 413.5625 C-229.26688674 411.81967112 -229.85865528 410.83793823 -231 408 C-231.23046875 406.02734375 -231.23046875 406.02734375 -231.1875 403.9375 C-231.17332031 403.15890625 -231.15914062 402.3803125 -231.14453125 401.578125 C-230.93607938 397.85979443 -230.5029806 394.17295062 -230.0234375 390.48046875 C-229.99671591 387.65243368 -230.33026883 386.27923427 -232 384 C-235.16451868 382.90554832 -238.17273334 382.87110062 -241.5 382.8671875 C-242.551875 382.86589844 -243.60375 382.86460937 -244.6875 382.86328125 C-245.780625 382.86714844 -246.87375 382.87101562 -248 382.875 C-249.6396875 382.86919922 -249.6396875 382.86919922 -251.3125 382.86328125 C-252.8903125 382.86521484 -252.8903125 382.86521484 -254.5 382.8671875 C-255.4590625 382.86831543 -256.418125 382.86944336 -257.40625 382.87060547 C-259.7811105 382.98908025 -261.71434909 383.39926039 -264 384 C-265.64239667 384.15592048 -267.2874474 384.28507715 -268.93359375 384.39453125 C-275.44130092 384.95239638 -281.69878918 386.24860517 -288.0625 387.6875 C-289.23466064 387.94934082 -290.40682129 388.21118164 -291.61450195 388.48095703 C-301.30950731 390.71035017 -310.67136205 393.56120797 -320 397 C-320.66 396.34 -321.32 395.68 -322 395 C-312.58905075 362.20934731 -300.03766413 332.08660801 -279 305 C-278.19691406 303.96488281 -277.39382813 302.92976563 -276.56640625 301.86328125 C-272.12807436 296.31734425 -267.39773527 291.06031108 -262.54052734 285.88134766 C-259.96838194 283.16022976 -259.96838194 283.16022976 -258 280 C-256.33385767 278.99912662 -254.66707569 277.99931797 -253 277 C-250.9960505 275.38443371 -249.01812742 273.73623518 -247.0625 272.0625 C-241.23985879 267.08132436 -235.12771576 263.02266432 -228.5390625 259.1484375 C-228.03117188 258.76945312 -227.52328125 258.39046875 -227 258 C-227 257.34 -227 256.68 -227 256 C-226.34 255.938125 -225.68 255.87625 -225 255.8125 C-220.05534159 254.47332168 -215.4304636 252.47685831 -212.77880859 247.88549805 C-211.778498 245.26305501 -210.96309688 242.63498877 -210.1875 239.9375 C-209.52617356 237.86157245 -208.85924574 235.78742319 -208.1875 233.71484375 C-207.66349609 232.07491455 -207.66349609 232.07491455 -207.12890625 230.40185547 C-189.77919794 178.12010037 -160.46430927 128.85579129 -122.62109375 88.83203125 C-119.96616935 85.96344676 -117.48612345 83.01463608 -115 80 C-112.8125 77.625 -112.8125 77.625 -111 76 C-110.34 76 -109.68 76 -109 76 C-108.9071875 75.1028125 -108.9071875 75.1028125 -108.8125 74.1875 C-108 72 -108 72 -105.84375 70.7109375 C-102.39888973 68.63834299 -99.62929853 66.15768066 -96.6875 63.4375 C-96.13771484 62.94314453 -95.58792969 62.44878906 -95.02148438 61.93945312 C-93.63913385 60.67043817 -92.31425713 59.33941037 -91 58 C-91 57.34 -91 56.68 -91 56 C-90.10945923 55.82694336 -90.10945923 55.82694336 -89.20092773 55.65039062 C-86.85545835 54.95728686 -85.64495468 54.15400467 -83.78515625 52.59375 C-83.18864258 52.10197266 -82.59212891 51.61019531 -81.97753906 51.10351562 C-81.02959473 50.30977539 -81.02959473 50.30977539 -80.0625 49.5 C-73.27701365 43.95748094 -66.33209166 38.80532217 -59 34 C-58.3095459 33.54657227 -57.6190918 33.09314453 -56.90771484 32.62597656 C-38.69265629 20.73674933 -19.97617307 10.60675542 0 2 C0 1.34 0 0.68 0 0 Z " fill="#0950A3" transform="translate(684,72)"/>
<path d="M0 0 C1.24511719 1.44848633 1.24511719 1.44848633 2.296875 3.33203125 C2.69422852 4.03755127 3.09158203 4.74307129 3.50097656 5.4699707 C3.9131543 6.24300537 4.32533203 7.01604004 4.75 7.8125 C5.18538086 8.6171167 5.62076172 9.4217334 6.06933594 10.25073242 C12.53613514 22.49112207 17.39109825 35.29988301 21.3125 48.5625 C21.54291992 49.32731689 21.77333984 50.09213379 22.01074219 50.88012695 C26.52828274 67.00496058 27.46569764 83.08337032 27.33618164 99.75195312 C27.31252663 102.99634695 27.31565727 106.2399161 27.32226562 109.484375 C27.30025158 126.51822802 26.02406271 143.12118916 22.875 159.875 C22.66472168 160.99720947 22.45444336 162.11941895 22.23779297 163.27563477 C15.79905992 196.19962979 4.77393478 228.95430634 -10.81005859 258.70556641 C-12.18570696 261.35807837 -13.52401852 264.02815558 -14.86328125 266.69921875 C-28.88211831 294.44210424 -45.95183707 320.45220688 -65 345 C-65.42829102 345.55220215 -65.85658203 346.1044043 -66.29785156 346.67333984 C-68.78480833 349.85590096 -71.34306286 352.95815446 -74 356 C-74.75990234 356.89912109 -74.75990234 356.89912109 -75.53515625 357.81640625 C-77.5410009 359.86694938 -79.22892336 360.98437369 -82.13157654 361.04319763 C-88.30709011 360.35169251 -94.12410509 359.10583816 -100.09765625 357.41015625 C-101.50720078 357.02019722 -101.50720078 357.02019722 -102.94522095 356.62236023 C-105.98684131 355.77784773 -109.02475044 354.92082258 -112.0625 354.0625 C-114.18133156 353.46949452 -116.30022867 352.87672322 -118.41918945 352.28417969 C-135.69113009 347.4369833 -152.87707385 342.34774698 -170 337 C-171.35189572 336.58234283 -172.70394936 336.16519649 -174.05615234 335.74853516 C-177.99983293 334.53262111 -181.93779652 333.29923286 -185.875 332.0625 C-187.05924561 331.69672852 -188.24349121 331.33095703 -189.46362305 330.95410156 C-190.54554932 330.60959961 -191.62747559 330.26509766 -192.7421875 329.91015625 C-193.6894873 329.61246338 -194.63678711 329.31477051 -195.61279297 329.00805664 C-198.08322736 327.96485521 -199.35217185 327.09418286 -201 325 C-217.64339165 275.06982506 -175.66588565 186.16340116 -154 142.375 C-140.20585061 115.07614223 -122.6488357 90.52301347 -102 68 C-101.01529184 66.91045726 -100.03093497 65.82059696 -99.046875 64.73046875 C-93.63676653 58.76473214 -88.19487475 53.16058108 -82 48 C-80.99656307 47.11439219 -79.99546866 46.22612661 -78.99609375 45.3359375 C-65.21629841 33.1410195 -19.33532335 -7.05588555 0 0 Z " fill="#FEB600" transform="translate(685,116)"/>
<path d="M0 0 C6.66418724 1.95229855 13.27216741 4.0518072 19.87207031 6.21069336 C32.15940364 10.22317574 44.44813455 13.91746386 57 17 C58.50535945 17.3756971 60.01057198 17.75198346 61.515625 18.12890625 C62.66546875 18.41636719 63.8153125 18.70382812 65 19 C65.38688339 25.53441442 63.93474921 31.34302086 62.375 37.6640625 C62.10864746 38.77429779 61.84229492 39.88453308 61.56787109 41.02841187 C60.71937935 44.56245826 59.86063518 48.09389279 59 51.625 C58.14016032 55.16342303 57.28270258 58.70234906 56.43212891 62.24301147 C55.90355475 64.44246593 55.3695768 66.64063042 54.82958984 68.83731079 C54.46921631 70.33444107 54.46921631 70.33444107 54.1015625 71.86181641 C53.88838379 72.73560944 53.67520508 73.60940247 53.45556641 74.50967407 C52.92077215 76.99999814 52.92077215 76.99999814 53.01245117 79.57359314 C52.99966133 82.06599852 52.58136407 83.64885137 51.69921875 85.96069336 C49.55247728 92.06356594 48.21953582 98.32167234 46.8125 104.62890625 C46.51087008 105.9651365 46.2088116 107.30127006 45.90635681 108.63731384 C45.26527893 111.47296183 44.62696878 114.30921221 43.99093628 117.14599609 C42.99145338 121.60357559 41.98572177 126.05972987 40.97875977 130.515625 C39.95915745 135.02846491 38.93978478 139.5413549 37.92250061 144.05471802 C33.88351616 161.97240952 29.77319444 179.87365917 25.65718079 197.77378845 C24.56566438 202.5239602 23.48355449 207.27605853 22.4140625 212.03125 C20.98545409 218.36451154 19.50697724 224.68496914 18 231 C17.80104126 231.83638 17.60208252 232.67276001 17.39709473 233.53448486 C5.63648245 282.90080333 5.63648245 282.90080333 -3 304 C-3.49109806 305.28277932 -3.97964113 306.56654167 -4.46484375 307.8515625 C-10.78346852 323.78548583 -19.93679167 338.92603043 -31 352 C-31.51159668 352.61020996 -32.02319336 353.22041992 -32.55029297 353.84912109 C-43.38799723 366.74744715 -43.38799723 366.74744715 -46 369 C-46.66 369 -47.32 369 -48 369 C-48 369.66 -48 370.32 -48 371 C-49.81649996 372.62045275 -51.62538342 374.09730213 -53.5625 375.5625 C-54.14241699 376.00360107 -54.72233398 376.44470215 -55.31982422 376.89916992 C-67.60967695 386.06334601 -80.7726907 393.12309346 -95.375 397.8125 C-96.05361084 398.03196289 -96.73222168 398.25142578 -97.43139648 398.47753906 C-101.049939 399.58955486 -104.21163891 400.25597034 -108 400 C-108.33 400.66 -108.66 401.32 -109 402 C-115.90507881 402.05068981 -122.81010966 402.08572927 -129.71533203 402.10986328 C-132.06463413 402.11992384 -134.41392369 402.13357373 -136.76318359 402.15087891 C-140.13902885 402.17512452 -143.5147086 402.18648259 -146.890625 402.1953125 C-148.46738007 402.21079636 -148.46738007 402.21079636 -150.07598877 402.22659302 C-151.05670349 402.22674408 -152.03741821 402.22689514 -153.04785156 402.22705078 C-153.90944885 402.231492 -154.77104614 402.23593323 -155.65875244 402.24050903 C-158.22579131 401.97680517 -159.75659635 401.23651637 -162 400 C-163.9598571 399.37407705 -165.92057229 398.75051731 -167.88818359 398.14941406 C-186.85638613 392.27648153 -203.68023578 382.94860566 -216 367 C-216.58265625 366.25363281 -217.1653125 365.50726562 -217.765625 364.73828125 C-224.45047422 355.7137348 -231.70582684 343.64614283 -231 332 C-231.66 331.67 -232.32 331.34 -233 331 C-233.67548951 304.54332755 -227.57008133 282.99236438 -210 263 C-209.21625 261.948125 -208.4325 260.89625 -207.625 259.8125 C-202.21083765 254.01161177 -195.31759444 249.09933296 -188 246 C-184.25 246.625 -184.25 246.625 -181 248 C-179 251 -179 251 -179.1875 254.28515625 C-180.01585136 258.07247423 -181.24541639 260.99159902 -183 264.4375 C-185.44807085 269.51476388 -186.68935033 273.40830593 -187 279 C-187.33 279.99 -187.66 280.98 -188 282 C-189.26772167 292.57820212 -186.31017031 303.22232238 -180.3125 311.9375 C-170.02038532 324.8930085 -156.43391953 330.41041645 -140.29296875 332.3203125 C-121.80883227 333.17211602 -105.39285979 325.39337074 -91.65234375 313.58984375 C-84.23890151 306.35109234 -78.33182802 298.03138962 -73.1875 289.0625 C-72.85089355 288.47976318 -72.51428711 287.89702637 -72.16748047 287.29663086 C-64.65203865 273.58195919 -61.02338995 259.05759855 -57.5625 243.9375 C-57.08573224 241.89250388 -56.607939 239.84774658 -56.12915039 237.80322266 C-55.18185099 233.7505817 -54.24091879 229.69655031 -53.30566406 225.64111328 C-52.15830212 220.67134366 -50.98748676 215.70753128 -49.8046875 210.74609375 C-49.18172714 208.1225295 -48.55966874 205.49875217 -47.9375 202.875 C-47.66301025 201.72378662 -47.38852051 200.57257324 -47.10571289 199.38647461 C-45.67155428 193.26444148 -44.48334299 187.1846674 -43.62719727 180.95361328 C-42.98153005 177.91302082 -41.92940392 175.17158098 -40.80476379 172.28094482 C-39.23860834 167.84198497 -38.27499106 163.24261882 -37.22265625 158.66015625 C-36.97003525 157.57979599 -36.71741425 156.49943573 -36.45713806 155.38633728 C-35.65391092 151.94620373 -34.85805193 148.50441567 -34.0625 145.0625 C-33.53239547 142.78569212 -33.00180076 140.5089983 -32.47070312 138.23242188 C-31.44536453 133.83571868 -30.42462708 129.43798403 -29.40673828 125.03955078 C-28.53091972 121.26295085 -27.64119807 117.49038072 -26.72998047 113.72216797 C-26.5406041 112.93514999 -26.35122772 112.14813202 -26.15611267 111.33726501 C-25.81242097 109.91361505 -25.46519512 108.49081108 -25.11354065 107.06910706 C-24.34970934 103.89660475 -24 101.3000611 -24 98 C-23.34 98 -22.68 98 -22 98 C-21.87818359 96.31197266 -21.87818359 96.31197266 -21.75390625 94.58984375 C-20.88024567 86.78463606 -18.78813209 79.18119854 -16.9375 71.5625 C-16.53236002 69.87685283 -16.12782794 68.19105945 -15.72387695 66.50512695 C-14.89405744 63.04298036 -14.06198511 59.58138677 -13.22851562 56.12011719 C-11.52322901 49.0265939 -9.85463669 41.9244934 -8.18826294 34.82174683 C-7.55251162 32.11218084 -6.9154989 29.40291224 -6.27845764 26.69364929 C-5.83051013 24.78847673 -5.38278279 22.8832524 -4.93505859 20.97802734 C-3.29155334 13.98499548 -1.64558928 6.99254169 0 0 Z " fill="#FEAE00" transform="translate(499,526)"/>
<path d="M0 0 C0.77803038 -0.00453111 1.55606075 -0.00906223 2.3576678 -0.01373065 C4.96090776 -0.02637644 7.56393856 -0.0247542 10.16720581 -0.02310181 C12.03497588 -0.02908672 13.90274347 -0.03589218 15.77050781 -0.04345703 C20.84051264 -0.06112247 25.91044995 -0.06581249 30.98048258 -0.0670886 C35.21048664 -0.06898755 39.44047497 -0.07634457 43.67047298 -0.08343279 C53.6453035 -0.09971445 63.62009791 -0.10460174 73.59494019 -0.10317993 C83.89529124 -0.10197678 94.19543334 -0.12311372 104.49573147 -0.15466726 C113.33403262 -0.18078038 122.17226528 -0.1915494 131.01060474 -0.19026911 C136.29187485 -0.18975825 141.57295905 -0.1955103 146.85419083 -0.21662521 C151.81679456 -0.2359255 156.77903336 -0.23618869 161.74164963 -0.22159195 C163.56581401 -0.21949289 165.39000076 -0.22426955 167.21412659 -0.23631287 C169.69836186 -0.25165633 172.18132129 -0.24253104 174.66552734 -0.22705078 C175.3926584 -0.23733791 176.11978945 -0.24762503 176.86895478 -0.25822389 C180.13974733 -0.21296763 181.77250214 -0.15518397 184.16499138 2.17839622 C185.36941505 4.59586721 185.46667119 5.68755702 185.10421753 8.34555054 C184.98530151 9.22404663 184.8663855 10.10254272 184.74386597 11.00765991 C183.6689612 17.51951491 182.5306183 24.01515592 181.30441284 30.50033569 C180.8295672 33.02387102 180.36902534 35.54976297 179.90890503 38.07601929 C179.60508697 39.69727621 179.30042871 41.31837595 178.99484253 42.93930054 C178.86034698 43.68629211 178.72585144 44.43328369 178.58728027 45.20291138 C177.7318501 49.63390481 176.5440232 53.33941846 174.20578003 57.26742554 C171.37183616 58.68439747 168.99704265 58.38688483 165.82833862 58.38095093 C164.8476667 58.38116997 164.8476667 58.38116997 163.84718323 58.38139343 C161.68282776 58.38069589 159.51855799 58.37291093 157.35421753 58.36508179 C155.85491991 58.36321704 154.35562169 58.36179341 152.85632324 58.36079407 C148.90746381 58.35697333 144.95864107 58.34714681 141.00979614 58.33609009 C136.98137916 58.32586645 132.95295625 58.3212944 128.92453003 58.31625366 C121.01826318 58.30552416 113.11202617 58.28845304 105.20578003 58.26742554 C105.06380692 59.0645697 104.9218338 59.86171387 104.77555847 60.68301392 C104.12376758 64.34142635 103.47141833 67.99973902 102.81906128 71.65805054 C102.59577148 72.91182495 102.37248169 74.16559937 102.14242554 75.45736694 C100.69646295 83.56323972 99.21794756 91.661723 97.68624878 99.75180054 C97.15146532 103.6648502 97.12323612 107.32269544 97.20578003 111.26742554 C96.21578003 111.76242554 96.21578003 111.76242554 95.20578003 112.26742554 C94.54878472 114.3380805 94.54878472 114.3380805 94.12765503 116.89584351 C93.93947708 117.89428284 93.75129913 118.89272217 93.55741882 119.92141724 C93.35887802 121.02302185 93.16033722 122.12462646 92.95578003 123.25961304 C92.74156906 124.40730164 92.52735809 125.55499023 92.30665588 126.73745728 C91.84236747 129.22984005 91.38202281 131.72295991 90.92510986 134.21670532 C90.20172188 138.16457278 89.46913777 142.1106099 88.73239136 146.05599976 C88.60889092 146.71742792 88.48539049 147.37885609 88.35814762 148.06032753 C88.10697762 149.40530248 87.85576088 150.7502687 87.60449791 152.09522629 C87.22290857 154.13967359 86.84240739 156.18432115 86.46208191 158.22900391 C83.82988902 172.36422632 81.05825845 186.47140062 78.26235962 200.57504272 C76.22977461 210.82969773 74.20978252 221.0820527 72.38937378 231.37680054 C72.25268784 232.14148651 72.11600189 232.90617249 71.97517395 233.69403076 C71.35882617 237.14323087 70.75590824 240.59266921 70.18112183 244.04916382 C69.97527466 245.21173706 69.76942749 246.3743103 69.55734253 247.57211304 C69.39057007 248.5619519 69.22379761 249.55179077 69.05197144 250.57162476 C67.93095686 254.14295856 67.111362 255.83372057 64.20578003 258.26742554 C60.57207885 258.96394457 57.00283778 258.84816405 53.31515503 258.75570679 C52.25540466 258.74863205 51.1956543 258.74155731 50.10379028 258.73426819 C46.72040087 258.7062889 43.33866887 258.64354075 39.95578003 258.57992554 C37.6615331 258.55484738 35.36726022 258.53203337 33.07296753 258.51156616 C27.45000661 258.45645079 21.82801172 258.37278862 16.20578003 258.26742554 C14.35330416 254.41844055 14.0645298 252.09894256 14.88546753 247.92367554 C15.16583862 246.42514038 15.16583862 246.42514038 15.45187378 244.89633179 C15.65941284 243.86379272 15.8669519 242.83125366 16.08078003 241.76742554 C16.47773594 239.71605985 16.87109422 237.66399399 17.26046753 235.61117554 C17.44077515 234.70560913 17.62108276 233.80004272 17.80685425 232.86703491 C18.20244995 230.28912607 18.27679348 227.87086075 18.20578003 225.26742554 C18.86578003 225.26742554 19.52578003 225.26742554 20.20578003 225.26742554 C20.25848053 224.65463242 20.31118103 224.04183929 20.36547852 223.41047668 C20.91101913 217.48632723 21.75672349 211.703783 22.88546753 205.86508179 C23.05414841 204.97328217 23.22282928 204.08148254 23.3966217 203.16265869 C23.76272516 201.22960844 24.13074259 199.29691988 24.50048828 197.36456299 C25.0921273 194.27058493 25.67791556 191.175549 26.26217651 188.08016968 C27.81824516 179.84071951 29.38241112 171.60280898 30.94692993 163.36495972 C32.35257213 155.96199511 33.75414163 148.55828734 35.14710999 141.15292645 C35.76689261 137.85933799 36.38920746 134.56627114 37.01748657 131.27429199 C37.7227549 127.57385098 38.42016448 123.87200587 39.11593628 120.16976929 C39.32800217 119.06761078 39.54006805 117.96545227 39.75856018 116.82989502 C40.94002803 110.56227856 40.94002803 110.56227856 41.21139526 104.21102905 C41.20578003 101.26742554 41.20578003 101.26742554 43.20578003 98.26742554 C43.85796397 95.39594864 44.4251921 92.55908803 44.93234253 89.66195679 C45.08488495 88.82275192 45.23742737 87.98354706 45.39459229 87.11891174 C45.87990787 84.4403892 46.35545387 81.76023695 46.83078003 79.07992554 C47.15826275 77.26275238 47.48638012 75.44569347 47.81515503 73.62875366 C48.61939813 69.1762695 49.41488429 64.72229913 50.20578003 60.26742554 C48.88578003 60.26742554 47.56578003 60.26742554 46.20578003 60.26742554 C46.20578003 59.60742554 46.20578003 58.94742554 46.20578003 58.26742554 C38.30409145 58.37493829 30.40249965 58.48757397 22.50097942 58.60676479 C18.83205335 58.66194755 15.16311924 58.71536008 11.49411011 58.76473999 C7.95384111 58.81245216 4.41366826 58.86479738 0.87351418 58.92036629 C-1.13558296 58.95068849 -3.14475078 58.97620239 -5.15391541 59.00166321 C-6.98547432 59.03158104 -6.98547432 59.03158104 -8.85403442 59.06210327 C-9.93103104 59.07764755 -11.00802765 59.09319183 -12.11766052 59.10920715 C-14.89640787 59.157213 -14.89640787 59.157213 -17.79421997 60.26742554 C-20.34690921 58.648647 -21.40181494 57.88779364 -22.79421997 55.26742554 C-23.19753384 45.83740731 -21.09521064 36.15601805 -19.32009888 26.92391968 C-18.91528573 24.80937502 -18.52794771 22.69210401 -18.14187622 20.57406616 C-17.88378966 19.20212758 -17.62471113 17.83037515 -17.36453247 16.45883179 C-17.13524048 15.24397095 -16.90594849 14.02911011 -16.66970825 12.7774353 C-15.69619584 8.87442697 -14.70808664 5.81252148 -12.79421997 2.26742554 C-8.67555935 -0.02844072 -4.59870854 -0.01970906 0 0 Z " fill="#FEA500" transform="translate(150.79421997070313,475.7325744628906)"/>
<path d="M0 0 C12.91577889 11.11710499 18.53917578 27.61635905 20.4375 44.125 C21.14954533 57.5379469 20.30788491 70.52431867 18.09375 83.75390625 C17.51870016 87.24688479 17.29945131 90.5759982 17.4375 94.125 C16.7775 94.125 16.1175 94.125 15.4375 94.125 C15.1075 95.115 14.7775 96.105 14.4375 97.125 C13.5088916 97.15005615 12.5802832 97.1751123 11.62353516 97.20092773 C8.18314196 97.29597932 4.74292287 97.39521707 1.30273438 97.49731445 C-0.18712641 97.54066589 -1.67703695 97.58234084 -3.16699219 97.62231445 C-5.30679327 97.68001215 -7.44634385 97.74370755 -9.5859375 97.80859375 C-10.87419434 97.84525146 -12.16245117 97.88190918 -13.48974609 97.91967773 C-16.4752682 97.92030675 -16.4752682 97.92030675 -18.5625 99.125 C-18.5625 98.465 -18.5625 97.805 -18.5625 97.125 C-62.6175 97.62 -62.6175 97.62 -107.5625 98.125 C-109.93977344 102.87954688 -109.07102485 109.17145901 -107.7734375 114.15625 C-106.16947407 118.71101637 -104.46627768 122.27271041 -101.5625 126.125 C-101.5625 126.785 -101.5625 127.445 -101.5625 128.125 C-98.32752554 129.78892227 -95.03380605 131.26127541 -91.6875 132.6875 C-90.67945313 133.12191406 -89.67140625 133.55632812 -88.6328125 134.00390625 C-75.88766391 138.65766916 -62.43670388 136.03100307 -50.4375 130.5 C-43.86710734 127.06331241 -38.77066406 122.33316406 -33.5625 117.125 C-32.21155018 117.03231001 -30.85582909 117.00752674 -29.50170898 117.01147461 C-28.64089218 117.01155014 -27.78007538 117.01162567 -26.89317322 117.01170349 C-25.95776199 117.01686478 -25.02235077 117.02202606 -24.05859375 117.02734375 C-23.10557877 117.0287587 -22.15256378 117.03017365 -21.17066956 117.03163147 C-18.11374835 117.03724848 -15.05689923 117.04980384 -12 117.0625 C-9.93294376 117.06751281 -7.86588638 117.07207609 -5.79882812 117.07617188 C-0.72002412 117.08722344 4.3587257 117.10449945 9.4375 117.125 C8.97699387 118.55663958 8.51210832 119.98687088 8.04541016 121.41650391 C7.78700348 122.21311432 7.5285968 123.00972473 7.26235962 123.83047485 C-0.14638735 144.43950434 -18.6135985 159.57232217 -37.73828125 168.62890625 C-61.79607519 179.08203332 -93.01295655 180.95376216 -117.75244141 171.26757812 C-134.26561766 164.12955271 -146.61724613 154.06660193 -153.5625 137.125 C-161.054821 114.69575879 -161.00962171 88.86901271 -154.5625 66.125 C-154.25699219 65.00061523 -154.25699219 65.00061523 -153.9453125 63.85351562 C-149.17888939 46.71498808 -141.13944469 31.33688389 -129.71484375 17.71484375 C-127.57529689 15.34037541 -127.57529689 15.34037541 -126.5625 13.125 C-124.89807018 12.12128134 -123.23108953 11.12178822 -121.5625 10.125 C-120.201693 8.9263204 -118.86881738 7.69534076 -117.5625 6.4375 C-86.37842933 -21.60758006 -33.74346416 -25.18016812 0 0 Z M-87.875 35.375 C-94.59661061 41.72008885 -100.48133718 50.37899094 -103.5625 59.125 C-103.2325 60.115 -102.9025 61.105 -102.5625 62.125 C-92.94864362 62.14813874 -83.33479678 62.16592293 -73.72091866 62.17681217 C-69.2571324 62.18203764 -64.79336516 62.18912921 -60.32958984 62.20043945 C-56.02429898 62.21128024 -51.71902644 62.21727938 -47.41372299 62.21987724 C-45.76863186 62.22172933 -44.12354177 62.22534584 -42.4784584 62.23073006 C-40.17978982 62.23795628 -37.88119759 62.23899027 -35.58251953 62.23852539 C-33.61727829 62.24185631 -33.61727829 62.24185631 -31.61233521 62.24525452 C-28.64510724 62.33781471 -28.64510724 62.33781471 -26.5625 61.125 C-24.18077135 54.53298974 -24.53686557 45.714289 -27.0625 39.25 C-30.36387935 32.94841977 -35.47032033 28.62906336 -42.125 26.1875 C-46.00915221 25.08821164 -49.52098628 24.97531431 -53.5625 25.125 C-54.635 24.91875 -55.7075 24.7125 -56.8125 24.5 C-68.24451308 23.35679869 -79.12182581 28.22713768 -87.875 35.375 Z " fill="#FE8F01" transform="translate(422.5625,562.875)"/>
<path d="M0 0 C2.17429486 0.6415952 4.34720539 1.28803878 6.515625 1.94921875 C9.29168916 2.78639505 12.07248099 3.59482783 14.859375 4.39453125 C16.59395729 4.90815462 18.32833078 5.42248367 20.0625 5.9375 C20.92012939 6.17807129 21.77775879 6.41864258 22.66137695 6.66650391 C23.46534912 6.90933105 24.26932129 7.1521582 25.09765625 7.40234375 C25.82476807 7.61366943 26.55187988 7.82499512 27.30102539 8.04272461 C29 9 29 9 29.82250977 10.72949219 C30.05449807 13.69715555 29.47694739 16.03935139 28.7421875 18.92578125 C28.44868408 20.10382324 28.15518066 21.28186523 27.8527832 22.49560547 C27.36878052 24.38496826 27.36878052 24.38496826 26.875 26.3125 C26.21526555 28.94543161 25.56250927 31.58007485 24.91015625 34.21484375 C24.74587631 34.87506531 24.58159637 35.53528687 24.41233826 36.21551514 C22.92019367 42.24320118 21.59514764 48.29992372 20.3125 54.375 C18.78752903 61.53713441 17.09142186 68.60474044 15.15234375 75.66796875 C10.61518918 92.46570571 6.85371186 109.47478359 3.19909668 126.48199463 C0.79605007 137.63909406 -1.83548832 148.730428 -4.5625 159.8125 C-7.19180911 170.49876344 -9.76881202 181.18674097 -12.125 191.9375 C-15.13354503 205.66224504 -18.2749969 219.35196452 -21.52996826 233.02044678 C-22.01006907 235.0424062 -22.48606045 237.06530135 -22.96142578 239.08837891 C-28.36674514 262.03141104 -34.52113592 284.25349779 -46 305 C-46.34643555 305.63486328 -46.69287109 306.26972656 -47.04980469 306.92382812 C-61.47192444 333.07629047 -83.77964391 352.36344525 -112.49609375 361.05859375 C-135.31133646 367.01163461 -158.16499377 365.11386027 -179 354 C-179.88171875 353.53722656 -180.7634375 353.07445312 -181.671875 352.59765625 C-188.24653491 348.91217142 -193.63761494 344.26815784 -199 339 C-199.78632813 338.23816406 -200.57265625 337.47632813 -201.3828125 336.69140625 C-214.46879369 323.18401211 -219.22209978 306.28368753 -219.25366211 287.93334961 C-219.16112785 282.4052364 -218.32602913 277.98291585 -216 273 C-215.7215625 272.32839844 -215.443125 271.65679688 -215.15625 270.96484375 C-210.03327826 259.50440266 -199.41230895 250.8513864 -188 246 C-184.25 246.625 -184.25 246.625 -181 248 C-179 251 -179 251 -179.1875 254.28515625 C-180.01585136 258.07247423 -181.24541639 260.99159902 -183 264.4375 C-185.44807085 269.51476388 -186.68935033 273.40830593 -187 279 C-187.33 279.99 -187.66 280.98 -188 282 C-189.26772167 292.57820212 -186.31017031 303.22232238 -180.3125 311.9375 C-170.02038532 324.8930085 -156.43391953 330.41041645 -140.29296875 332.3203125 C-121.80883227 333.17211602 -105.39285979 325.39337074 -91.65234375 313.58984375 C-84.23890151 306.35109234 -78.33182802 298.03138962 -73.1875 289.0625 C-72.85089355 288.47976318 -72.51428711 287.89702637 -72.16748047 287.29663086 C-64.65203865 273.58195919 -61.02338995 259.05759855 -57.5625 243.9375 C-57.08573224 241.89250388 -56.607939 239.84774658 -56.12915039 237.80322266 C-55.18185099 233.7505817 -54.24091879 229.69655031 -53.30566406 225.64111328 C-52.15830212 220.67134366 -50.98748676 215.70753128 -49.8046875 210.74609375 C-49.18172714 208.1225295 -48.55966874 205.49875217 -47.9375 202.875 C-47.66301025 201.72378662 -47.38852051 200.57257324 -47.10571289 199.38647461 C-45.67155428 193.26444148 -44.48334299 187.1846674 -43.62719727 180.95361328 C-42.98153005 177.91302082 -41.92940392 175.17158098 -40.80476379 172.28094482 C-39.23860834 167.84198497 -38.27499106 163.24261882 -37.22265625 158.66015625 C-36.97003525 157.57979599 -36.71741425 156.49943573 -36.45713806 155.38633728 C-35.65391092 151.94620373 -34.85805193 148.50441567 -34.0625 145.0625 C-33.53239547 142.78569212 -33.00180076 140.5089983 -32.47070312 138.23242188 C-31.44536453 133.83571868 -30.42462708 129.43798403 -29.40673828 125.03955078 C-28.53091972 121.26295085 -27.64119807 117.49038072 -26.72998047 113.72216797 C-26.5406041 112.93514999 -26.35122772 112.14813202 -26.15611267 111.33726501 C-25.81242097 109.91361505 -25.46519512 108.49081108 -25.11354065 107.06910706 C-24.34970934 103.89660475 -24 101.3000611 -24 98 C-23.34 98 -22.68 98 -22 98 C-21.87818359 96.31197266 -21.87818359 96.31197266 -21.75390625 94.58984375 C-20.88024567 86.78463606 -18.78813209 79.18119854 -16.9375 71.5625 C-16.53236002 69.87685283 -16.12782794 68.19105945 -15.72387695 66.50512695 C-14.89405744 63.04298036 -14.06198511 59.58138677 -13.22851562 56.12011719 C-11.52322901 49.0265939 -9.85463669 41.9244934 -8.18826294 34.82174683 C-7.55251162 32.11218084 -6.9154989 29.40291224 -6.27845764 26.69364929 C-5.83051013 24.78847673 -5.38278279 22.8832524 -4.93505859 20.97802734 C-3.29155334 13.98499548 -1.64558928 6.99254169 0 0 Z " fill="#FE7601" transform="translate(499,526)"/>
<path d="M0 0 C9.59035159 6.857617 17.20312452 16.56945905 19.375 28.375 C20.41526404 43.36503422 17.95284896 56.29698317 8.375 68.375 C-0.5452765 78.16102257 -11.75340032 84.38339472 -24.98046875 85.58984375 C-38.44080631 86.12483332 -49.66004538 81.20663718 -59.4375 72.1875 C-68.12484504 63.08574097 -71.05107166 51.22145116 -70.98852539 38.93310547 C-70.67640883 26.06280572 -65.02532357 14.93289516 -56.3125 5.5625 C-52.20872961 1.73415044 -47.60092688 -1.06728058 -42.625 -3.625 C-41.96242188 -3.96789062 -41.29984375 -4.31078125 -40.6171875 -4.6640625 C-27.50714335 -10.16513985 -11.70559538 -7.06752929 0 0 Z " fill="#084EA5" transform="translate(653.625,215.625)"/>
<path d="M0 0 C4.58984267 4.74640821 4.46603598 9.20427262 4.4543457 15.62353516 C4.42816162 16.92339355 4.40197754 18.22325195 4.375 19.5625 C4.35771767 20.94058506 4.34105206 22.31867797 4.32495117 23.69677734 C4.268896 27.58479703 4.17439805 31.47110932 4.06964111 35.35809326 C3.99538799 38.17496124 3.9309157 40.99196835 3.86669922 43.80908203 C3.74550253 48.90455108 3.59079665 53.99817336 3.41412354 59.0920105 C3.34659764 61.10734418 3.28628674 63.12293307 3.2333374 65.13870239 C3.1546064 67.99233263 3.04430029 70.84309197 2.92578125 73.6953125 C2.89882423 74.9731234 2.89882423 74.9731234 2.87132263 76.27674866 C2.57969364 82.15064051 1.30682485 84.93668609 -3 89 C-7.80864914 90.60288305 -12.17071411 90.77236515 -16.8125 88.8125 C-20.00342458 86.16859106 -21.79293848 83.91914425 -22.25109863 79.67269897 C-22.32552963 76.71772849 -22.29729624 73.77948863 -22.234375 70.82421875 C-22.2156131 69.17204597 -22.2156131 69.17204597 -22.19647217 67.48649597 C-22.14977305 63.99038651 -22.07807458 60.49553994 -22 57 C-21.97800537 55.89497131 -21.95601074 54.78994263 -21.93334961 53.65142822 C-21.79806679 47.12572949 -21.60501319 40.60397061 -21.36523438 34.08129883 C-21.28722209 31.8683613 -21.2178106 29.65510667 -21.15625 27.44165039 C-21.06514849 24.17504446 -20.94950872 20.91013522 -20.828125 17.64453125 C-20.80502258 16.66023636 -20.78192017 15.67594147 -20.75811768 14.66181946 C-20.50764049 8.86374232 -19.82476564 5.4432995 -16 1 C-10.776676 -2.24406075 -5.56152897 -2.72623969 0 0 Z " fill="#FCCB03" transform="translate(408,194)"/>
<path d="M0 0 C3.09665355 2.89709143 5.8873782 6.02906999 8.63671875 9.25390625 C14.12071722 15.6806466 19.88489357 21.8651142 25.625 28.0625 C29.51137544 32.2612007 33.38942676 36.46143724 37.1015625 40.81640625 C38.30817227 42.21512986 39.58586895 43.55194445 40.875 44.875 C43.23682139 48.59941065 43.83696054 52.04952502 43.5 56.4375 C42.26725036 59.80409546 40.8214058 62.7767971 37.5 64.4375 C32.86426769 65.12427516 28.39486177 65.54228965 24.2421875 63.12109375 C22.19283847 61.3248996 20.34419702 59.4429168 18.5 57.4375 C17.31401206 56.29010169 16.12654743 55.14422746 14.9375 54 C12.04464231 51.06184029 9.33901587 47.9938691 6.6484375 44.87109375 C3.82379004 41.67153853 0.91223643 38.55722402 -2 35.4375 C-21.34277965 14.66963599 -21.34277965 14.66963599 -21.5 7.4375 C-20.4054024 2.94964984 -17.96706538 0.40927033 -14.5 -2.5625 C-9.49550415 -4.8979314 -4.09611218 -3.3873467 0 0 Z " fill="#FCCD02" transform="translate(320.5,240.5625)"/>
<path d="M0 0 C0 0.66 0 1.32 0 2 C0.99 2.33 1.98 2.66 3 3 C5.64488524 7.06973924 5.79968215 11.30291958 5 16 C0.37373905 22.50567947 -7.7750603 25.45051753 -15.3984375 26.84375 C-21.5738638 28.05417839 -27.58004757 29.76352929 -33.625 31.5 C-57.95380851 38.43864586 -57.95380851 38.43864586 -64.8125 36 C-67.94658594 33.13455 -69.11579975 30.1158348 -70 26 C-69.90250029 21.02751503 -68.32482595 18.60435143 -65 15 C-55.83950995 10.01059171 -44.69298746 7.75281528 -34.6862793 4.97802734 C-32.04070576 4.24395269 -29.39816385 3.4996531 -26.75585938 2.75390625 C-25.05745818 2.27805113 -23.35889611 1.80276971 -21.66015625 1.328125 C-20.87882828 1.10835999 -20.09750031 0.88859497 -19.29249573 0.66217041 C-12.19635023 -1.29845064 -7.20482434 -2.44964027 0 0 Z " fill="#FCCC03" transform="translate(336,334)"/>
<path d="M0 0 C3 2 3 2 4 5 C5.41806344 14.74918614 -0.56685477 21.77221448 -6.11328125 29.234375 C-8.87688786 32.89421026 -11.69260405 36.51131002 -14.52734375 40.11621094 C-16.38377148 42.49091193 -18.18769812 44.90404619 -20 47.3125 C-24.69816683 53.22828464 -24.69816683 53.22828464 -28 55 C-31.53570725 55.20223967 -34.80810819 54.91789369 -37.69921875 52.69140625 C-39.75869598 50.01346739 -39.7177617 47.8905586 -39.60546875 44.5859375 C-38.34509227 39.2029102 -34.41204215 35.21073015 -31 31 C-29.7170241 29.27982339 -28.44611162 27.55058271 -27.1875 25.8125 C-26.53523437 24.92046875 -25.88296875 24.0284375 -25.2109375 23.109375 C-23.51350369 20.72217126 -21.85889177 18.32184852 -20.2265625 15.890625 C-19.74421143 15.17543701 -19.26186035 14.46024902 -18.76489258 13.72338867 C-17.81768888 12.31412662 -16.87708242 10.90040115 -15.9440918 9.48168945 C-11.62696006 3.06578701 -8.29024211 -0.92113801 0 0 Z " fill="#FED700" transform="translate(593,398)"/>
<path d="M0 0 C3.10303529 0.62751549 4.22175548 1.92248018 6.10546875 4.42578125 C8.00114806 13.89023897 5.58615469 24.79252906 4.35546875 34.23828125 C4.19884766 35.47763428 4.04222656 36.7169873 3.88085938 37.99389648 C2.88632018 45.09332496 1.741354 52.1347215 -1.89453125 58.42578125 C-5.64500607 60.92609779 -7.45309391 60.96181679 -11.89453125 60.42578125 C-14.83203125 58.55078125 -14.83203125 58.55078125 -16.89453125 55.42578125 C-18.26844687 46.96511659 -15.91550376 37.60754823 -14.55078125 29.24780273 C-14.14413002 26.73580276 -13.76102113 24.22091267 -13.37890625 21.70507812 C-13.11991303 20.0870111 -12.85954344 18.46916365 -12.59765625 16.8515625 C-12.43175995 15.73881706 -12.43175995 15.73881706 -12.26251221 14.60359192 C-10.89835356 6.54355607 -8.74244012 0.47566747 0 0 Z " fill="#FED700" transform="translate(540.89453125,385.57421875)"/>
<path d="M0 0 C0 0.99 0 1.98 0 3 C-0.51304687 2.7834375 -1.02609375 2.566875 -1.5546875 2.34375 C-13.32449797 -1.93618108 -26.74451791 -1.65649703 -38.1640625 3.44921875 C-50.91568397 10.42221286 -58.4793284 20.68946175 -63.1484375 34.36328125 C-66.13788383 47.13013689 -64.21828427 59.98094053 -57.6875 71.3125 C-50.74183 81.41719462 -41.58458123 86.3335575 -30 90 C-30 90.66 -30 91.32 -30 92 C-38.95479035 90.88065121 -47.61710398 86.38289602 -54 80 C-54 79.34 -54 78.68 -54 78 C-54.66 78 -55.32 78 -56 78 C-60 73.52941176 -60 73.52941176 -60 71 C-60.99 70.67 -61.98 70.34 -63 70 C-68.94419831 56.9585482 -68.71079266 41.65234021 -64.328125 28.2265625 C-60.83546031 19.74144181 -56.19052721 13.60861122 -49 8 C-48.67 7.34 -48.34 6.68 -48 6 C-46.44140625 4.9296875 -46.44140625 4.9296875 -44.5625 3.875 C-43.94503906 3.52179688 -43.32757812 3.16859375 -42.69140625 2.8046875 C-41 2 -41 2 -39 2 C-39 1.34 -39 0.68 -39 0 C-25.1804089 -3.7998221 -13.8195911 -3.7998221 0 0 Z " fill="#F8E206" transform="translate(648,210)"/>
<path d="M0 0 C0.99 0.495 0.99 0.495 2 1 C0.27563834 2.60960555 -1.45413328 4.21264034 -3.1875 5.8125 C-4.15042969 6.70582031 -5.11335937 7.59914062 -6.10546875 8.51953125 C-8.65605638 10.70525749 -11.08703157 12.35742325 -14 14 C-20.33027236 18.74770427 -25.40311956 24.54736617 -30.64453125 30.4296875 C-33.47150845 33.51451502 -36.43649847 36.42675152 -39.46875 39.30859375 C-41.23347096 41.02996818 -41.23347096 41.02996818 -42 44 C-43.37385745 45.09908596 -44.74824144 46.19751903 -46.125 47.29296875 C-52.64317796 53.2272266 -57.8002982 60.90471072 -63 68 C-63.68449219 68.91136719 -64.36898437 69.82273437 -65.07421875 70.76171875 C-65.79222656 71.72722656 -66.51023437 72.69273437 -67.25 73.6875 C-67.91515625 74.57824219 -68.5803125 75.46898437 -69.265625 76.38671875 C-71.0958216 78.91561168 -71.0958216 78.91561168 -71.984375 81.76953125 C-72.31953125 82.50558594 -72.6546875 83.24164063 -73 84 C-75.06347656 84.6394043 -75.06347656 84.6394043 -77 85 C-73.58230896 78.45884332 -69.6746293 72.52470692 -65.25 66.625 C-64.63165283 65.79427979 -64.01330566 64.96355957 -63.3762207 64.10766602 C-56.04413998 54.30893146 -48.271469 45.02222336 -40 36 C-39.01529184 34.91045726 -38.03093497 33.82059696 -37.046875 32.73046875 C-31.63786545 26.76594392 -26.20021576 21.1525931 -20 16 C-18.86796904 15.02033131 -17.73794963 14.03833588 -16.609375 13.0546875 C-15.36466795 11.97386088 -14.11987562 10.89313246 -12.875 9.8125 C-11.99545654 9.04474243 -11.99545654 9.04474243 -11.09814453 8.26147461 C-7.55132914 5.20440989 -3.95057844 2.51564189 0 0 Z " fill="#F4DC08" transform="translate(623,148)"/>
<path d="M0 0 C1.17695854 3.53087561 0.52998821 4.81984225 -0.9765625 8.109375 C-2.36581852 10.67578689 -4.077499 12.93206839 -5.81640625 15.26953125 C-7.2433552 17.35579655 -8.1903618 19.55894041 -9.11328125 21.90625 C-10.75547442 25.78385149 -12.76508141 29.49004582 -14.6953125 33.23046875 C-15.77947126 35.53187164 -16.51439214 37.51866229 -17 40 C-17.66 40 -18.32 40 -19 40 C-19.11472656 40.70253906 -19.22945312 41.40507812 -19.34765625 42.12890625 C-20.06091745 45.26810975 -21.15717372 47.9855311 -22.4375 50.9375 C-23.75422975 53.98366585 -24.99248486 56.97728443 -26.03515625 60.12890625 C-26.86098755 62.58633946 -27.7846627 64.72124256 -29 67 C-31.37326637 71.64984411 -32.84912135 76.2007943 -33.875 81.3125 C-34.73619807 85.34936597 -36.15890136 88.79415552 -37.9140625 92.515625 C-39.96675912 97.21172231 -41.44771213 102.12020143 -43 107 C-43.66 107 -44.32 107 -45 107 C-36.32973512 70.15748008 -19.98615713 32.17360839 0 0 Z " fill="#F3DB08" transform="translate(544,235)"/>
<path d="M0 0 C2.41864148 2.20990401 3.89792645 4.37502305 5.41015625 7.2734375 C5.84263672 8.0984375 6.27511719 8.9234375 6.72070312 9.7734375 C7.16349609 10.63195312 7.60628906 11.49046875 8.0625 12.375 C8.50916016 13.22578125 8.95582031 14.0765625 9.41601562 14.953125 C11.48032992 18.91512732 13.38612241 22.82955287 15 27 C15.66 27 16.32 27 17 27 C17.061875 28.010625 17.12375 29.02125 17.1875 30.0625 C17.67693482 34.01876478 18.82141843 37.44828956 20.1875 41.1875 C30.76942902 71.35207929 35.57259236 108.21310793 31 140 C30.67 140 30.34 140 30 140 C29.98541748 138.87843506 29.97083496 137.75687012 29.95581055 136.60131836 C29.65385682 106.16694139 29.65385682 106.16694139 26 76 C25.81920898 74.96472168 25.63841797 73.92944336 25.45214844 72.86279297 C21.75062509 51.57817017 21.75062509 51.57817017 13 32 C12.2945783 30.43354888 11.62720602 28.84937535 11 27.25 C10.65710938 26.37730469 10.31421875 25.50460938 9.9609375 24.60546875 C9.1008983 22.27357385 8.35025052 19.93876199 7.625 17.5625 C6.09997737 12.79147949 3.70650074 8.60905603 1.20703125 4.28515625 C0 2 0 2 0 0 Z " fill="#174479" transform="translate(711,93)"/>
<path d="M0 0 C0 3.71928506 -1.34770822 5.69541645 -3 9 C-7.19402953 24.88139183 -2.81792375 42.65971546 4.4609375 56.84765625 C10.81498873 67.61854798 19.79316454 76.31037974 30.625 82.5 C33.12368817 84.07811885 34.99172195 85.84296061 37 88 C21.67679801 83.54193392 9.00550797 69.56629468 1.34375 56.0859375 C-4.84981989 44.33637108 -6.57559907 32.94356183 -7.76538086 19.90063477 C-7.96980706 17.84561586 -7.96980706 17.84561586 -8.76171875 15.31640625 C-9.11892269 11.84391546 -7.6163326 10.14583526 -5.6875 7.3125 C-4.73423828 5.88357422 -4.73423828 5.88357422 -3.76171875 4.42578125 C-2 2 -2 2 0 0 Z " fill="#FED300" transform="translate(285,794)"/>
<path d="M0 0 C23.76 0 47.52 0 72 0 C72 6.60977415 71.97995411 11.40980637 70.75 17.625 C70.55192749 18.63469849 70.55192749 18.63469849 70.34985352 19.66479492 C69.22215541 25.26173525 67.85393949 30.79290942 66.41552734 36.31713867 C65.15443359 41.19885086 64.22053205 46.0716632 63.4921875 51.05859375 C63.32976562 51.69925781 63.16734375 52.33992187 63 53 C62.01 53.495 62.01 53.495 61 54 C60.94583812 52.39620659 60.90713362 50.79188594 60.875 49.1875 C60.85179687 48.29417969 60.82859375 47.40085937 60.8046875 46.48046875 C61 44 61 44 63 41 C63.65218394 38.1285231 64.21941207 35.29166249 64.7265625 32.39453125 C64.87910492 31.55532639 65.03164734 30.71612152 65.18881226 29.85148621 C65.67412784 27.17296367 66.14967384 24.49281141 66.625 21.8125 C66.95248272 19.99532684 67.28060009 18.17826794 67.609375 16.36132812 C68.4136181 11.90884396 69.20910426 7.45487359 70 3 C68.68 3 67.36 3 66 3 C66 2.34 66 1.68 66 1 C58.09831142 1.10751276 50.19671962 1.22014844 42.29519939 1.33933926 C38.62627332 1.39452201 34.95733921 1.44793454 31.28833008 1.49731445 C27.74806108 1.54502662 24.20788823 1.59737185 20.66773415 1.65294075 C18.65863701 1.68326295 16.64946919 1.70877685 14.64030457 1.73423767 C12.80874565 1.7641555 12.80874565 1.7641555 10.94018555 1.79467773 C9.86318893 1.81022202 8.78619232 1.8257663 7.67655945 1.84178162 C4.8978121 1.88978747 4.8978121 1.88978747 2 3 C1.34 2.67 0.68 2.34 0 2 C0 1.34 0 0.68 0 0 Z " fill="#F7AA0F" transform="translate(131,533)"/>
<path d="M0 0 C0.7532959 -0.01313232 1.5065918 -0.02626465 2.28271484 -0.03979492 C7.73935768 -0.04764708 12.93130719 0.34629584 17.60546875 3.46875 C21.62599002 9.85513757 18.20848311 21.28875518 16.6875 28.1875 C16.3575 28.1875 16.0275 28.1875 15.6875 28.1875 C15.59006893 22.24420453 15.89824798 16.56474054 16.6640625 10.66796875 C16.69078409 7.83993368 16.35723117 6.46673427 14.6875 4.1875 C11.52298132 3.09304832 8.51476666 3.05860062 5.1875 3.0546875 C4.135625 3.05339844 3.08375 3.05210937 2 3.05078125 C0.906875 3.05464844 -0.18625 3.05851562 -1.3125 3.0625 C-2.405625 3.05863281 -3.49875 3.05476563 -4.625 3.05078125 C-6.2028125 3.05271484 -6.2028125 3.05271484 -7.8125 3.0546875 C-8.7715625 3.05581543 -9.730625 3.05694336 -10.71875 3.05810547 C-13.0939424 3.17659681 -15.02630652 3.5876754 -17.3125 4.1875 C-18.97836078 4.34455661 -20.64683065 4.47513938 -22.31640625 4.5859375 C-29.48859197 5.19385086 -36.33631776 6.87699808 -43.32226562 8.546875 C-44.29744141 8.77117187 -45.27261719 8.99546875 -46.27734375 9.2265625 C-47.1499585 9.43490723 -48.02257324 9.64325195 -48.92163086 9.85791016 C-51.39283607 10.19857461 -52.96473954 9.96770607 -55.3125 9.1875 C-36.9049319 3.79732091 -19.25711854 0.20893446 0 0 Z " fill="#1A4C83" transform="translate(437.3125,451.8125)"/>
<path d="M0 0 C1 3 1 3 -0.01171875 5.35546875 C-4.97074604 13.73610927 -10.65218976 21.39795734 -16.57373047 29.11523438 C-19.23488693 32.63186017 -21.75652572 36.24783179 -24.28125 39.86328125 C-26.70482332 42.87622354 -28.54543874 44.76223518 -32.4375 45.3984375 C-33.283125 45.39070313 -34.12875 45.38296875 -35 45.375 C-36.2684375 45.38660156 -36.2684375 45.38660156 -37.5625 45.3984375 C-40.52775411 44.9137325 -41.87453553 44.11123145 -44 42 C-45.40735057 38.28371489 -45.47155616 34.52531295 -44.30078125 30.73828125 C-42.51925048 26.92876289 -40.74420334 24.13954476 -37 22 C-38.0770532 24.23695664 -39.13858457 26.18655616 -40.625 28.1875 C-42.55085898 32.12675701 -42.86928136 35.69498755 -42 40 C-39.27943563 42.80300572 -37.54453948 42.95890268 -33.6875 43.25 C-20.36503327 38.73390958 -7.12748174 13.98240631 -0.82421875 1.7109375 C-0.55222656 1.14632813 -0.28023437 0.58171875 0 0 Z " fill="#FD9700" transform="translate(597,409)"/>
<path d="M0 0 C1.24511719 1.44848633 1.24511719 1.44848633 2.296875 3.33203125 C2.69463135 4.03884033 3.0923877 4.74564941 3.50219727 5.47387695 C3.91397217 6.24562256 4.32574707 7.01736816 4.75 7.8125 C5.18175537 8.60551514 5.61351074 9.39853027 6.05834961 10.21557617 C11.36075845 20.20741552 17.32626595 31.69656318 19 43 C18.34 43 17.68 43 17 43 C16.32942113 41.2097939 15.6636531 39.41778511 15 37.625 C14.62875 36.62726563 14.2575 35.62953125 13.875 34.6015625 C13 32 13 32 13 30 C12.34 30 11.68 30 11 30 C10.814375 28.948125 10.62875 27.89625 10.4375 26.8125 C9.10569595 21.31757514 6.23002551 16.62914691 3.4609375 11.7578125 C2 9 2 9 2 7 C1.34 7 0.68 7 0 7 C-0.66 5.68 -1.32 4.36 -2 3 C-2.721875 3.144375 -3.44375 3.28875 -4.1875 3.4375 C-5.115625 3.623125 -6.04375 3.80875 -7 4 C-8.3303125 4.3403125 -8.3303125 4.3403125 -9.6875 4.6875 C-10.8321875 4.8421875 -10.8321875 4.8421875 -12 5 C-12.66 4.34 -13.32 3.68 -14 3 C-12.42274653 2.29866401 -10.83788667 1.614417 -9.25 0.9375 C-7.92742188 0.36322266 -7.92742188 0.36322266 -6.578125 -0.22265625 C-3.73171136 -1.08089309 -2.72934984 -1.04199317 0 0 Z " fill="#EED70D" transform="translate(685,116)"/>
<path d="M0 0 C1.66649478 3.16709415 2.91852857 6.40649847 4.1875 9.75 C8.3188991 19.67985399 15.49686654 27.16702577 25.3984375 31.48046875 C28.58154651 32.71297408 31.77295418 33.88824336 35 35 C35 35.66 35 36.32 35 37 C26.04520965 35.88065121 17.38289602 31.38289602 11 25 C11 24.34 11 23.68 11 23 C10.34 23 9.68 23 9 23 C5 18.52941176 5 18.52941176 5 16 C4.01 15.67 3.02 15.34 2 15 C0.00813631 9.86308839 -0.1921227 5.47549707 0 0 Z " fill="#F5DA09" transform="translate(583,265)"/>
<path d="M0 0 C0.33 0 0.66 0 1 0 C1.1254902 7.27843137 1.1254902 7.27843137 0.5 10.875 C-0.83649757 19.02774623 -0.83649757 19.02774623 1.5625 26.625 C4.91967398 28.51879045 7.20829285 28.48258091 11 28 C14.0905006 25.70507381 14.97032816 22.88007264 16.1875 19.3125 C16.53167969 18.31863281 16.87585938 17.32476562 17.23046875 16.30078125 C17.61138672 15.16189453 17.61138672 15.16189453 18 14 C18.33 14 18.66 14 19 14 C18.67948539 21.21157864 17.25844714 25.74155286 12 31 C7.01292528 31.58182538 4.94884337 31.55205433 0.5625 29 C-2.51873329 25.39270249 -2.91282259 22.58641844 -3 18 C-2.71328713 14.79149859 -2.16765036 11.66223251 -1.5625 8.5 C-1.41490234 7.67757813 -1.26730469 6.85515625 -1.11523438 6.0078125 C-0.75395486 4.00329392 -0.37845967 2.00134603 0 0 Z " fill="#FEA200" transform="translate(525,417)"/>
<path d="M0 0 C2.41864148 2.20990401 3.89792645 4.37502305 5.41015625 7.2734375 C5.84263672 8.0984375 6.27511719 8.9234375 6.72070312 9.7734375 C7.16349609 10.63195312 7.60628906 11.49046875 8.0625 12.375 C8.50916016 13.22578125 8.95582031 14.0765625 9.41601562 14.953125 C11.48032992 18.91512732 13.38612241 22.82955287 15 27 C15.66 27 16.32 27 17 27 C17 30.3 17 33.6 17 37 C13.34376596 34.56251064 12.98542325 33.00813102 11.5 28.9375 C11.06558594 27.76316406 10.63117187 26.58882812 10.18359375 25.37890625 C9.25282457 22.72175991 8.38773321 20.06555325 7.5625 17.375 C6.06244792 12.6742554 3.66890167 8.54401237 1.20703125 4.28515625 C0 2 0 2 0 0 Z " fill="#114987" transform="translate(711,93)"/>
<path d="M0 0 C0.33 0 0.66 0 1 0 C1.05827558 3.5624308 1.09368885 7.12473819 1.125 10.6875 C1.14175781 11.69490234 1.15851562 12.70230469 1.17578125 13.74023438 C1.18222656 14.71669922 1.18867187 15.69316406 1.1953125 16.69921875 C1.20578613 17.59471436 1.21625977 18.49020996 1.22705078 19.4128418 C0.97374501 22.29916568 0.29072216 24.41204259 -1 27 C-1.66 27.33 -2.32 27.66 -3 28 C-3.97089442 24.18598795 -3.93412837 21.33966602 -3.22265625 17.48046875 C-2.94711914 15.9480957 -2.94711914 15.9480957 -2.66601562 14.38476562 C-2.46685547 13.32966797 -2.26769531 12.27457031 -2.0625 11.1875 C-1.86720703 10.11306641 -1.67191406 9.03863281 -1.47070312 7.93164062 C-0.98863538 5.28614693 -0.49814846 2.64250457 0 0 Z " fill="#0E3CA9" transform="translate(711,252)"/>
<path d="M0 0 C0.33 0 0.66 0 1 0 C0.32614838 11.70373865 -0.78090686 23.34168208 -2 35 C-2.99 34.67 -3.98 34.34 -5 34 C-4.61465294 22.36251893 -2.45479317 11.34913679 0 0 Z " fill="#EDAF12" transform="translate(133,497)"/>
<path d="M0 0 C0.33 0 0.66 0 1 0 C-0.5538754 11.85606929 -2.78453908 23.63240739 -9 34 C-10.16237724 30.51286829 -9.79261399 29.61516602 -8.671875 26.2109375 C-8.21361328 24.79748047 -8.21361328 24.79748047 -7.74609375 23.35546875 C-7.41738281 22.37191406 -7.08867188 21.38835937 -6.75 20.375 C-6.43675781 19.41464844 -6.12351562 18.45429688 -5.80078125 17.46484375 C-4.87701039 14.63986813 -3.94078243 11.81935116 -3 9 C-2.55237305 7.65470215 -2.55237305 7.65470215 -2.09570312 6.28222656 C-1.39836208 4.18774223 -0.69937445 2.09380623 0 0 Z " fill="#0D31B5" transform="translate(702,300)"/>
<path d="M0 0 C0.66 0.33 1.32 0.66 2 1 C-2.16093436 7.65749498 -6.83075249 14.41537624 -14 18 C-14.99 18.66 -15.98 19.32 -17 20 C-15.35996677 15.98674221 -12.55124416 13.11105958 -9.625 10 C-9.14289062 9.47921875 -8.66078125 8.9584375 -8.1640625 8.421875 C-5.50002964 5.55514398 -2.78689283 2.74726877 0 0 Z " fill="#104C8F" transform="translate(573,148)"/>
<path d="M0 0 C0.33 0.66 0.66 1.32 1 2 C-0.05698038 4.4681282 -1.17536623 6.81268426 -2.40234375 9.1953125 C-2.75889542 9.90275604 -3.11544708 10.61019958 -3.48280334 11.33908081 C-4.62693905 13.6049044 -5.78205747 15.8649247 -6.9375 18.125 C-7.7136187 19.6571835 -8.48901889 21.18973118 -9.26367188 22.72265625 C-11.16745959 26.48605244 -13.08111768 30.24427934 -15 34 C-16 31 -16 31 -15.0390625 28.6953125 C-14.57242188 27.84710938 -14.10578125 26.99890625 -13.625 26.125 C-12.14441313 23.42024074 -11.05429241 21.27775682 -10.4609375 18.2421875 C-10.23277344 17.13230469 -10.23277344 17.13230469 -10 16 C-9.34 15.67 -8.68 15.34 -8 15 C-6.7454629 12.68214855 -5.57146981 10.37549139 -4.4375 8 C-1.10571429 1.10571429 -1.10571429 1.10571429 0 0 Z " fill="#132FB6" transform="translate(538,243)"/>
<path d="M0 0 C1.81242052 -0.02687279 3.62495233 -0.04633715 5.4375 -0.0625 C6.44683594 -0.07410156 7.45617187 -0.08570313 8.49609375 -0.09765625 C11 0 11 0 12 1 C13.87321948 1.16053815 13.87321948 1.16053815 16 1.125 C16.721875 1.12757813 17.44375 1.13015625 18.1875 1.1328125 C20.02089415 1.19695276 20.02089415 1.19695276 21 0 C23.67058851 -0.14115161 26.32432238 -0.04247107 29 0 C29 0.99 29 1.98 29 3 C25.66674246 3.05874776 22.33362062 3.09384467 19 3.125 C18.06542969 3.14175781 17.13085938 3.15851563 16.16796875 3.17578125 C10.40790037 3.21606145 5.5225718 2.65416655 0 1 C0 0.67 0 0.34 0 0 Z " fill="#0E5199" transform="translate(611,296)"/>
<path d="M0 0 C0.66 0.99 1.32 1.98 2 3 C-6 11 -6 11 -8.15625 13.0625 C-10.4358318 15.45799273 -11.63891459 18.00561209 -13 21 C-14 18 -14 18 -12.8125 15.546875 C-9.03485898 9.71758412 -5.19721699 4.62852456 0 0 Z " fill="#0D34B0" transform="translate(601,218)"/>
<path d="M0 0 C-1.2151222 3.64536661 -2.05614881 3.90109884 -5.3125 5.75 C-6.20324219 6.26304687 -7.09398437 6.77609375 -8.01171875 7.3046875 C-8.99785156 7.86414063 -9.98398437 8.42359375 -11 9 C-13.20937622 10.28988201 -15.41772239 11.58153008 -17.625 12.875 C-19.4163018 13.91729399 -21.20783567 14.95918979 -23 16 C-21.56566682 12.45241592 -19.94156147 10.99359233 -16.71875 8.984375 C-15.87699219 8.45585937 -15.03523437 7.92734375 -14.16796875 7.3828125 C-13.28753906 6.84398437 -12.40710938 6.30515625 -11.5 5.75 C-10.61957031 5.19570312 -9.73914063 4.64140625 -8.83203125 4.0703125 C-2.28544489 0 -2.28544489 0 0 0 Z " fill="#F2DD0A" transform="translate(652,130)"/>
<path d="M0 0 C0.66 0.33 1.32 0.66 2 1 C-1.7243925 3.4656257 -5.45530719 5.92120077 -9.1875 8.375 C-10.24259766 9.07367188 -11.29769531 9.77234375 -12.38476562 10.4921875 C-13.91713867 11.49765625 -13.91713867 11.49765625 -15.48046875 12.5234375 C-16.41785889 13.14138184 -17.35524902 13.75932617 -18.32104492 14.39599609 C-20.83084015 15.89871683 -23.255698 17.00325907 -26 18 C-26.33 17.01 -26.66 16.02 -27 15 C-26.11538086 14.73340576 -25.23076172 14.46681152 -24.31933594 14.19213867 C-21.15360155 13.05516596 -18.70446075 11.74587612 -15.890625 9.92578125 C-14.97152344 9.34119141 -14.05242188 8.75660156 -13.10546875 8.15429688 C-11.18545031 6.91587185 -9.26619144 5.67626849 -7.34765625 4.43554688 C-6.43371094 3.85482422 -5.51976562 3.27410156 -4.578125 2.67578125 C-3.74700195 2.13864502 -2.91587891 1.60150879 -2.05957031 1.0480957 C-1.37991211 0.70222412 -0.70025391 0.35635254 0 0 Z " fill="#0E2DB7" transform="translate(651,128)"/>
<path d="M0 0 C2.14763266 6.44289797 -0.2629525 13.63082583 -2 20 C-2.66 19.67 -3.32 19.34 -4 19 C-3.63176001 12.09232563 -2.76081837 6.3618858 0 0 Z " fill="#1243A7" transform="translate(499,331)"/>
<path d="M0 0 C0.33 0 0.66 0 1 0 C2.23483122 7.07221519 1.56857966 11.3865075 -1 18 C-1.71018348 20.32307007 -2.35234154 22.65846556 -3 25 C-4.09651823 21.58860997 -3.94215473 18.79344419 -3.5625 15.25 C-3.46066406 14.26515625 -3.35882813 13.2803125 -3.25390625 12.265625 C-3.17011719 11.51796875 -3.08632812 10.7703125 -3 10 C-2.34 10 -1.68 10 -1 10 C-0.67 6.7 -0.34 3.4 0 0 Z " fill="#F39714" transform="translate(172,691)"/>
<path d="M0 0 C6.625 0.75 6.625 0.75 10 3 C12.38677076 3.29452584 14.78626094 3.4928217 17.1875 3.625 C18.45980469 3.69976563 19.73210938 3.77453125 21.04296875 3.8515625 C22.01878906 3.90054688 22.99460937 3.94953125 24 4 C24 4.33 24 4.66 24 5 C16.08 5.495 16.08 5.495 8 6 C8 5.34 8 4.68 8 4 C5.36 3.67 2.72 3.34 0 3 C0 2.01 0 1.02 0 0 Z " fill="#2A518F" transform="translate(556,541)"/>
<path d="M0 0 C5.51678496 2.37792455 8.98366027 4.56637095 12.67578125 9.31640625 C14.01086354 11.01381176 15.44726146 12.50190328 17 14 C16.34 14.66 15.68 15.32 15 16 C14.5153125 15.40832031 14.030625 14.81664062 13.53125 14.20703125 C9.1496959 9.04185305 4.99752924 5.17422425 -1 2 C-0.67 1.34 -0.34 0.68 0 0 Z " fill="#F0D20B" transform="translate(650,212)"/>
<path d="M0 0 C0.33 0.66 0.66 1.32 1 2 C-2.47352525 8.77337423 -7.27751264 11.76324683 -14 15 C-10.83618873 11.11303187 -7.5949523 7.50277403 -4 4 C-3.236875 3.236875 -2.47375 2.47375 -1.6875 1.6875 C-1.130625 1.130625 -0.57375 0.57375 0 0 Z " fill="#FA800E" transform="translate(416,830)"/>
<path d="M0 0 C0.33 0.66 0.66 1.32 1 2 C-0.60147896 4.10626032 -2.20604875 6.21003738 -3.8125 8.3125 C-4.26431641 8.90740234 -4.71613281 9.50230469 -5.18164062 10.11523438 C-7.31610234 12.90405661 -9.41080206 15.61724973 -12 18 C-11.43178664 13.87297665 -9.04384107 11.06695988 -6.5625 7.875 C-6.15451172 7.33746094 -5.74652344 6.79992187 -5.32617188 6.24609375 C-3.64162863 4.04217257 -1.96348639 1.96348639 0 0 Z " fill="#F8E406" transform="translate(571,198)"/>
<path d="M0 0 C0.66 0.99 1.32 1.98 2 3 C-0.31 4.98 -2.62 6.96 -5 9 C-5.66 8.34 -6.32 7.68 -7 7 C-4.69 4.69 -2.38 2.38 0 0 Z " fill="#EACA0D" transform="translate(595,171)"/>
<path d="M0 0 C0.99 0.33 1.98 0.66 3 1 C2.125 8.875 2.125 8.875 1 10 C0.76807135 11.51469448 0.58784762 13.03754562 0.4375 14.5625 C0.35371094 15.38878906 0.26992188 16.21507812 0.18359375 17.06640625 C0.12300781 17.70449219 0.06242187 18.34257813 0 19 C-0.33 19 -0.66 19 -1 19 C-1.02697137 16.39576408 -1.04682489 13.79180756 -1.0625 11.1875 C-1.07087891 10.44951172 -1.07925781 9.71152344 -1.08789062 8.95117188 C-1.10259828 5.70077932 -1.03531702 3.10595105 0 0 Z " fill="#FBCB04" transform="translate(269,824)"/>
<path d="M0 0 C0 3.71928506 -1.34770822 5.69541645 -3 9 C-3.69907414 11.73572585 -3.69907414 11.73572585 -4 14 C-4.33 13.34 -4.66 12.68 -5 12 C-5.66 12 -6.32 12 -7 12 C-7 12.99 -7 13.98 -7 15 C-7.66 15 -8.32 15 -9 15 C-7.68262072 11.41061876 -6.09204262 8.40505503 -3.9375 5.25 C-3.41027344 4.47140625 -2.88304687 3.6928125 -2.33984375 2.890625 C-1 1 -1 1 0 0 Z " fill="#F8B109" transform="translate(285,794)"/>
<path d="M0 0 C4.29 0 8.58 0 13 0 C12.01 1.485 12.01 1.485 11 3 C8.90625 3.328125 8.90625 3.328125 6.5 3.25 C5.7059375 3.23453125 4.911875 3.2190625 4.09375 3.203125 C2 3 2 3 0 2 C0 1.34 0 0.68 0 0 Z " fill="#FAA702" transform="translate(595,472)"/>
<path d="M0 0 C1.6720218 3.1632845 2.92221136 6.3821918 4.125 9.75 C4.47820313 10.73484375 4.83140625 11.7196875 5.1953125 12.734375 C5.46085938 13.48203125 5.72640625 14.2296875 6 15 C4.68 15 3.36 15 2 15 C0.2520497 9.75614911 -0.19392201 5.52677733 0 0 Z " fill="#E7CD11" transform="translate(583,265)"/>
<path d="M0 0 C1.18469826 3.55409479 0.48826871 4.84207735 -1.03125 8.1484375 C-2.48513621 10.92723615 -4.18947136 13.44028709 -6 16 C-6.66 15.34 -7.32 14.68 -8 14 C-5.36 9.38 -2.72 4.76 0 0 Z " fill="#F0DA0A" transform="translate(544,235)"/>
<path d="M0 0 C0.33 0 0.66 0 1 0 C1 2.31 1 4.62 1 7 C-0.32 7.33 -1.64 7.66 -3 8 C-3.12375 8.61875 -3.2475 9.2375 -3.375 9.875 C-4 12 -4 12 -6 14 C-5.125 8.25 -5.125 8.25 -4 6 C-3.34 6 -2.68 6 -2 6 C-1.34 4.02 -0.68 2.04 0 0 Z " fill="#0A40AA" transform="translate(695,328)"/>
<path d="M0 0 C-2.64580473 1.76386982 -5.21784884 3.15902704 -8.0625 4.5625 C-8.94035156 4.99691406 -9.81820312 5.43132812 -10.72265625 5.87890625 C-11.47417969 6.24886719 -12.22570312 6.61882812 -13 7 C-13.99 7.495 -13.99 7.495 -15 8 C-13.9024777 5.00675737 -13.32317108 4.15389099 -10.375 2.75 C-9.59125 2.5025 -8.8075 2.255 -8 2 C-8 1.34 -8 0.68 -8 0 C-4.71303767 -0.79953138 -3.28976808 -1.09658936 0 0 Z " fill="#EFD90D" transform="translate(617,210)"/>
<path d="M0 0 C0.66 0.33 1.32 0.66 2 1 C-1.63 4.3 -5.26 7.6 -9 11 C-9.99 10.67 -10.98 10.34 -12 10 C-8.29909479 6.0747975 -4.45040344 3.05419844 0 0 Z " fill="#F1DB0A" transform="translate(623,148)"/>
<path d="M0 0 C3.92130921 0.78426184 7.4420035 2.18743574 11 4 C11.9375 6.1875 11.9375 6.1875 12 8 C7.39571066 6.68448876 3.81679612 4.90803514 0 2 C0 1.34 0 0.68 0 0 Z " fill="#F3BF09" transform="translate(301,908)"/>
<path d="M0 0 C0.99 0 1.98 0 3 0 C2.88655624 2.1464753 2.75893655 4.29220592 2.625 6.4375 C2.55539062 7.63246094 2.48578125 8.82742188 2.4140625 10.05859375 C2.27742187 11.02925781 2.14078125 11.99992187 2 13 C1.01 13.495 1.01 13.495 0 14 C-0.66 14.99 -1.32 15.98 -2 17 C-1.5130354 13.03471684 -1.01143923 9.07880357 -0.4375 5.125 C0.04621595 2.19579882 0.04621595 2.19579882 0 0 Z " fill="#0F4C9B" transform="translate(702,298)"/>
<path d="M0 0 C0 0.99 0 1.98 0 3 C-0.66 2.67 -1.32 2.34 -2 2 C-3.53668865 1.77532169 -5.07968054 1.59203195 -6.625 1.4375 C-7.44226563 1.35371094 -8.25953125 1.26992188 -9.1015625 1.18359375 C-9.72804688 1.12300781 -10.35453125 1.06242188 -11 1 C-8.58139369 -3.83721261 -4.10632509 -1.31712314 0 0 Z " fill="#F9840A" transform="translate(318,774)"/>
<path d="M0 0 C1.02222656 -0.01417969 2.04445313 -0.02835938 3.09765625 -0.04296875 C5.91793159 0.18591192 7.5430336 0.73474221 9.9375 2.1875 C4.92406855 3.10833435 0.94775547 2.99271963 -4.0625 2.1875 C-6.39553944 2.15046763 -8.72965242 2.13989087 -11.0625 2.1875 C-11.0625 1.8575 -11.0625 1.5275 -11.0625 1.1875 C-7.32769624 0.32773854 -3.83052846 0.0242132 0 0 Z " fill="#FB9014" transform="translate(366.0625,585.8125)"/>
<path d="M0 0 C0 0.66 0 1.32 0 2 C-0.99 2.495 -0.99 2.495 -2 3 C-2.33 3.99 -2.66 4.98 -3 6 C-4.98 6 -6.96 6 -9 6 C-8.25 3.5625 -8.25 3.5625 -7 1 C-4.50523949 -0.04618989 -2.73143089 0 0 0 Z " fill="#F7BD04" transform="translate(643,298)"/>
<path d="M0 0 C1.20703125 2.08203125 1.20703125 2.08203125 2 4 C1.40832031 3.79503906 0.81664062 3.59007812 0.20703125 3.37890625 C-3.83660816 2.0002429 -7.76855249 0.68249153 -12 0 C-12 -0.33 -12 -0.66 -12 -1 C-7.48742006 -2.36744847 -4.35261001 -1.72461906 0 0 Z " fill="#E2BF14" transform="translate(408,194)"/>
<path d="M0 0 C-0.99 1.485 -0.99 1.485 -2 3 C-3.32 3 -4.64 3 -6 3 C-7.299375 3.309375 -7.299375 3.309375 -8.625 3.625 C-9.40875 3.74875 -10.1925 3.8725 -11 4 C-11.66 3.34 -12.32 2.68 -13 2 C-8.50343896 -0.24828052 -4.92127034 -0.16682272 0 0 Z " fill="#F2D20A" transform="translate(684,117)"/>
<path d="M0 0 C0.33 0.66 0.66 1.32 1 2 C-1.97 5.63 -4.94 9.26 -8 13 C-8 9.00717059 -6.52191924 7.84668408 -4 4.8125 C-3.2575 3.91144531 -2.515 3.01039063 -1.75 2.08203125 C-1.1725 1.39496094 -0.595 0.70789063 0 0 Z " fill="#FB9D15" transform="translate(293,581)"/>
<path d="M0 0 C2 3.75 2 3.75 2 6 C3.32 6.33 4.64 6.66 6 7 C4.02 7.66 2.04 8.32 0 9 C-0.66 8.34 -1.32 7.68 -2 7 C-1.34 4.69 -0.68 2.38 0 0 Z " fill="#2C5884" transform="translate(364,460)"/>
<path d="M0 0 C4.62 0 9.24 0 14 0 C14 0.66 14 1.32 14 2 C8.65370398 3.0024305 4.37625234 2.84888195 -1 2 C-0.67 1.34 -0.34 0.68 0 0 Z " fill="#F9B408" transform="translate(177,476)"/>
<path d="M0 0 C1.07310858 3.27185553 0.89263102 5.42947592 0.0625 8.75 C-0.13214844 9.54921875 -0.32679688 10.3484375 -0.52734375 11.171875 C-0.68332031 11.77515625 -0.83929687 12.3784375 -1 13 C-1.33 13 -1.66 13 -2 13 C-2.05416188 11.39620659 -2.09286638 9.79188594 -2.125 8.1875 C-2.14820313 7.29417969 -2.17140625 6.40085937 -2.1953125 5.48046875 C-2 3 -2 3 0 0 Z " fill="#F39F10" transform="translate(542,639)"/>
<path d="M0 0 C1.3805087 3.76668598 0.59568159 6.44789173 -0.4375 10.25 C-0.72496094 11.32765625 -1.01242187 12.4053125 -1.30859375 13.515625 C-1.53675781 14.33546875 -1.76492188 15.1553125 -2 16 C-2.33 16 -2.66 16 -3 16 C-3.33266291 9.79029227 -2.45029331 5.71735105 0 0 Z " fill="#F8891E" transform="translate(459,696)"/>
<path d="M0 0 C0.99 0.66 1.98 1.32 3 2 C1 4 1 4 -0.9453125 4.1953125 C-2.96354167 4.13020833 -4.98177083 4.06510417 -7 4 C-7.33 3.34 -7.66 2.68 -8 2 C-5.36 2 -2.72 2 0 2 C0 1.34 0 0.68 0 0 Z " fill="#0E4D9B" transform="translate(605,476)"/>
<path d="M0 0 C-1.32 0.33 -2.64 0.66 -4 1 C-4 1.66 -4 2.32 -4 3 C-5.65 3 -7.3 3 -9 3 C-9.33 2.01 -9.66 1.02 -10 0 C-6.30458414 -0.95024979 -3.69541586 -0.95024979 0 0 Z " fill="#124999" transform="translate(545,461)"/>
<path d="M0 0 C0.66 0.33 1.32 0.66 2 1 C-1.17320782 4.53586014 -3.16743695 6.58578031 -8 7 C-5.42215154 4.35247996 -3.08351902 2.05567935 0 0 Z " fill="#114885" transform="translate(625,106)"/>
<path d="M0 0 C0.33 0.99 0.66 1.98 1 3 C-1.64 5.31 -4.28 7.62 -7 10 C-7 7 -7 7 -5.46875 5.17578125 C-4.8190625 4.56089844 -4.169375 3.94601563 -3.5 3.3125 C-2.8503125 2.68988281 -2.200625 2.06726563 -1.53125 1.42578125 C-0.77328125 0.72001953 -0.77328125 0.72001953 0 0 Z " fill="#13467C" transform="translate(564,158)"/>
<path d="M0 0 C0.20140476 3.62528568 -0.14223235 5.86501708 -2 9 C-2.66 9 -3.32 9 -4 9 C-3.4140625 2.84765625 -3.4140625 2.84765625 -3 1 C-1 0 -1 0 0 0 Z " fill="#E9C90D" transform="translate(495,365)"/>
<path d="M0 0 C0.66 0.33 1.32 0.66 2 1 C1.67 3.97 1.34 6.94 1 10 C-1.17766075 5.64467851 -1.03039555 4.53374042 0 0 Z " fill="#EDCA0E" transform="translate(267,354)"/>
<path d="M0 0 C1.32 0 2.64 0 4 0 C3.75 2.375 3.75 2.375 3 5 C0.9375 6.3125 0.9375 6.3125 -1 7 C-0.649375 6.401875 -0.29875 5.80375 0.0625 5.1875 C1.33304698 2.89186786 1.33304698 2.89186786 0 0 Z " fill="#113FAA" transform="translate(658,280)"/>
<path d="M0 0 C2.97 0.99 5.94 1.98 9 3 C8.34 3.66 7.68 4.32 7 5 C4.03 4.01 1.06 3.02 -2 2 C-1.34 1.34 -0.68 0.68 0 0 Z " fill="#EFD40E" transform="translate(640,208)"/>
<path d="M0 0 C0.66 0 1.32 0 2 0 C2.66 2.64 3.32 5.28 4 8 C3.01 7.67 2.02 7.34 1 7 C0.67 4.69 0.34 2.38 0 0 Z " fill="#F8C808" transform="translate(273,872)"/>
<path d="M0 0 C1.98 0.66 3.96 1.32 6 2 C5.67 2.66 5.34 3.32 5 4 C3.35 4 1.7 4 0 4 C0 2.68 0 1.36 0 0 Z " fill="#104AA0" transform="translate(609,152)"/>
<path d="M0 0 C0.66 1.32 1.32 2.64 2 4 C0.625 6 0.625 6 -1 8 C-1.66 8 -2.32 8 -3 8 C-1.125 2.25 -1.125 2.25 0 0 Z " fill="#F5B908" transform="translate(275,809)"/>
<path d="M0 0 C2.64 0 5.28 0 8 0 C8.33 0.99 8.66 1.98 9 3 C4.545 2.01 4.545 2.01 0 1 C0 0.67 0 0.34 0 0 Z " fill="#1D4B92" transform="translate(491,523)"/>
<path d="M0 0 C0.33 0 0.66 0 1 0 C1 2.97 1 5.94 1 9 C0.67 9 0.34 9 0 9 C0 6.03 0 3.06 0 0 Z " fill="#F3C80D" transform="translate(384,264)"/>
<path d="M0 0 C0.33 0 0.66 0 1 0 C1 2.97 1 5.94 1 9 C0.67 9 0.34 9 0 9 C0 6.03 0 3.06 0 0 Z " fill="#0E4A90" transform="translate(743,191)"/>
<path d="M0 0 C1.65 0 3.3 0 5 0 C5 0.33 5 0.66 5 1 C3.35 1 1.7 1 0 1 C0 0.67 0 0.34 0 0 Z " fill="#DC7902" transform="translate(179,735)"/>
<path d="M0 0 C1.65 0 3.3 0 5 0 C5 0.33 5 0.66 5 1 C3.35 1 1.7 1 0 1 C0 0.67 0 0.34 0 0 Z " fill="#FE8A01" transform="translate(366,661)"/>
<path d="M0 0 C0.33 0.99 0.66 1.98 1 3 C0.34 3 -0.32 3 -1 3 C-0.67 2.01 -0.34 1.02 0 0 Z " fill="#F09501" transform="translate(177,655)"/>
<path d="M0 0 C1.65 0 3.3 0 5 0 C5 0.33 5 0.66 5 1 C3.35 1 1.7 1 0 1 C0 0.67 0 0.34 0 0 Z " fill="#16559B" transform="translate(427,455)"/>
<path d="M0 0 C4 1 4 1 4 1 Z " fill="#FA7901" transform="translate(368,856)"/>
<path d="M0 0 C4 1 4 1 4 1 Z " fill="#E78103" transform="translate(204,735)"/>
<path d="M0 0 C1 4 1 4 1 4 Z " fill="#FB7C03" transform="translate(464,665)"/>
<path d="M0 0 C1 4 1 4 1 4 Z " fill="#F39D03" transform="translate(184,616)"/>
<path d="M0 0 C0.66 0 1.32 0 2 0 C1.67 0.99 1.34 1.98 1 3 C0.67 2.01 0.34 1.02 0 0 Z " fill="#154F91" transform="translate(656,523)"/>
<path d="M0 0 C4 1 4 1 4 1 Z " fill="#D6B622" transform="translate(394,285)"/>
<path d="M0 0 C0.99 0.33 1.98 0.66 3 1 C2.01 1.33 1.02 1.66 0 2 C0 1.34 0 0.68 0 0 Z " fill="#0D468B" transform="translate(636,96)"/>
<path d="M0 0 C3 1 3 1 3 1 Z " fill="#F87904" transform="translate(349,856)"/>
<path d="M0 0 C3 1 3 1 3 1 Z " fill="#E47E07" transform="translate(197,735)"/>
<path d="M0 0 C3 1 3 1 3 1 Z " fill="#E27F06" transform="translate(193,735)"/>
<path d="M0 0 C3 1 3 1 3 1 Z " fill="#E48106" transform="translate(189,735)"/>
<path d="" fill="#F48C03" transform="translate(0,0)"/>
<path d="" fill="#FA9501" transform="translate(0,0)"/>
<path d="" fill="#FE9300" transform="translate(0,0)"/>
<path d="" fill="#FE9303" transform="translate(0,0)"/>
<path d="M0 0 C3 1 3 1 3 1 Z " fill="#FE8500" transform="translate(411,661)"/>
<path d="M0 0 C3 1 3 1 3 1 Z " fill="#FE8701" transform="translate(395,661)"/>
<path d="M0 0 C0.66 0 1.32 0 2 0 C1.67 0.66 1.34 1.32 1 2 C0.67 1.34 0.34 0.68 0 0 Z " fill="#FE8C01" transform="translate(355,661)"/>
<path d="M0 0 C3 1 3 1 3 1 Z " fill="#FE8E01" transform="translate(336,661)"/>
<path d="M0 0 C0.66 0 1.32 0 2 0 C1.67 0.66 1.34 1.32 1 2 C0.67 1.34 0.34 0.68 0 0 Z " fill="#FF9202" transform="translate(323,661)"/>
<path d="" fill="#FB7E05" transform="translate(0,0)"/>
<path d="M0 0 C0.66 0.66 1.32 1.32 2 2 C1.34 2 0.68 2 0 2 C0 1.34 0 0.68 0 0 Z " fill="#FA7E04" transform="translate(480,595)"/>
<path d="M0 0 C3 1 3 1 3 1 Z " fill="#FB8E04" transform="translate(349,591)"/>
<path d="M0 0 C3 1 3 1 3 1 Z " fill="#FD8B03" transform="translate(376,590)"/>
<path d="M0 0 C3 1 3 1 3 1 Z " fill="#FB9B02" transform="translate(293,535)"/>
<path d="M0 0 C3 1 3 1 3 1 Z " fill="#F9A906" transform="translate(181,535)"/>
<path d="M0 0 C0.33 0.66 0.66 1.32 1 2 C0.34 1.67 -0.32 1.34 -1 1 C-0.67 0.67 -0.34 0.34 0 0 Z " fill="#1F5594" transform="translate(597,526)"/>
<path d="M0 0 C0.66 0 1.32 0 2 0 C1.67 0.66 1.34 1.32 1 2 C0.67 1.34 0.34 0.68 0 0 Z " fill="#8C674C" transform="translate(494,526)"/>
<path d="" fill="#DD9D08" transform="translate(0,0)"/>
<path d="M0 0 C0.99 0.495 0.99 0.495 2 1 C1.01 1.495 1.01 1.495 0 2 C0 1.34 0 0.68 0 0 Z " fill="#5D666C" transform="translate(365,470)"/>
<path d="M0 0 C3 1 3 1 3 1 Z " fill="#15549C" transform="translate(443,455)"/>
<path d="" fill="#0D4991" transform="translate(0,0)"/>
<path d="" fill="#325C88" transform="translate(0,0)"/>
<path d="" fill="#0C488F" transform="translate(0,0)"/>
<path d="M0 0 C2 1 2 1 2 1 Z " fill="#DF9904" transform="translate(393,927)"/>
<path d="M0 0 C2 1 2 1 2 1 Z " fill="#DFA006" transform="translate(338,927)"/>
<path d="M0 0 C2 1 2 1 2 1 Z " fill="#DE9A04" transform="translate(397,926)"/>
<path d="M0 0 C2 1 2 1 2 1 Z " fill="#DEA105" transform="translate(332,926)"/>
<path d="M0 0 C2 1 2 1 2 1 Z " fill="#F97601" transform="translate(392,848)"/>
<path d="" fill="#E29201" transform="translate(0,0)"/>
<path d="" fill="#E69102" transform="translate(0,0)"/>
<path d="M0 0 C2 1 2 1 2 1 Z " fill="#FA8602" transform="translate(380,734)"/>
<path d="" fill="#F78100" transform="translate(0,0)"/>
<path d="M0 0 C2 1 2 1 2 1 Z " fill="#FD8C04" transform="translate(350,698)"/>
<path d="" fill="#FC7E03" transform="translate(0,0)"/>
<path d="M0 0 C2 1 2 1 2 1 Z " fill="#FB8C00" transform="translate(345,697)"/>
<path d="M0 0 C2 1 2 1 2 1 Z " fill="#FD8C06" transform="translate(361,696)"/>
<path d="" fill="#FE9402" transform="translate(0,0)"/>
<path d="" fill="#F99303" transform="translate(0,0)"/>
<path d="" fill="#FE8600" transform="translate(0,0)"/>
<path d="" fill="#FF8901" transform="translate(0,0)"/>
<path d="M0 0 C2 1 2 1 2 1 Z " fill="#FF8701" transform="translate(380,661)"/>
<path d="M0 0 C2 1 2 1 2 1 Z " fill="#FF8D00" transform="translate(348,661)"/>
<path d="M0 0 C2 1 2 1 2 1 Z " fill="#FF8D01" transform="translate(343,661)"/>
<path d="M0 0 C2 1 2 1 2 1 Z " fill="#FF8F02" transform="translate(332,661)"/>
<path d="" fill="#FC7E01" transform="translate(0,0)"/>
<path d="" fill="#FC8201" transform="translate(0,0)"/>
<path d="" fill="#E38E05" transform="translate(0,0)"/>
<path d="" fill="#F6A002" transform="translate(0,0)"/>
<path d="" fill="#F87E04" transform="translate(0,0)"/>
<path d="M0 0 C2 1 2 1 2 1 Z " fill="#FD8A02" transform="translate(372,589)"/>
<path d="" fill="#DD8D14" transform="translate(0,0)"/>
<path d="M0 0 C2 1 2 1 2 1 Z " fill="#164987" transform="translate(672,537)"/>
<path d="M0 0 C2 1 2 1 2 1 Z " fill="#FDA307" transform="translate(268,535)"/>
<path d="M0 0 C2 1 2 1 2 1 Z " fill="#F1A907" transform="translate(152,535)"/>
<path d="M0 0 C2 1 2 1 2 1 Z " fill="#E69D0A" transform="translate(141,535)"/>
<path d="M0 0 C2 1 2 1 2 1 Z " fill="#E09B09" transform="translate(136,535)"/>
<path d="" fill="#A46F3E" transform="translate(0,0)"/>
<path d="M0 0 C2 1 2 1 2 1 Z " fill="#8A654C" transform="translate(492,527)"/>
<path d="" fill="#76645A" transform="translate(0,0)"/>
<path d="M0 0 C2 1 2 1 2 1 Z " fill="#505B71" transform="translate(477,519)"/>
<path d="M0 0 C2 1 2 1 2 1 Z " fill="#4E5B70" transform="translate(475,518)"/>
<path d="M0 0 C2 1 2 1 2 1 Z " fill="#174F90" transform="translate(640,511)"/>
<path d="" fill="#DC9F02" transform="translate(0,0)"/>
<path d="M0 0 C2 1 2 1 2 1 Z " fill="#F2A509" transform="translate(288,474)"/>
<path d="" fill="#606768" transform="translate(0,0)"/>
<path d="M0 0 C2 1 2 1 2 1 Z " fill="#2C588A" transform="translate(388,462)"/>
<path d="M0 0 C2 1 2 1 2 1 Z " fill="#0E4A92" transform="translate(710,395)"/>
<path d="" fill="#0F4C93" transform="translate(0,0)"/>
<path d="M0 0 C2 1 2 1 2 1 Z " fill="#11488E" transform="translate(718,347)"/>
<path d="M0 0 C2 1 2 1 2 1 Z " fill="#E5BB0A" transform="translate(288,341)"/>
<path d="" fill="#104A8D" transform="translate(0,0)"/>
<path d="M0 0 C2 1 2 1 2 1 Z " fill="#D3B426" transform="translate(399,285)"/>
<path d="" fill="#0E4991" transform="translate(0,0)"/>
<path d="" fill="#F3CA0A" transform="translate(0,0)"/>
<path d="" fill="#0F4A92" transform="translate(0,0)"/>
<path d="" fill="#1F558E" transform="translate(0,0)"/>
<path d="" fill="#1B4F8D" transform="translate(0,0)"/>
<path d="" fill="#184F8E" transform="translate(0,0)"/>
<path d="" fill="#164D8C" transform="translate(0,0)"/>
<path d="M0 0 C2 1 2 1 2 1 Z " fill="#0D458A" transform="translate(613,112)"/>
<path d="M0 0 C2 1 2 1 2 1 Z " fill="#0F4786" transform="translate(625,104)"/>
<path d="M0 0 C2 1 2 1 2 1 Z " fill="#104787" transform="translate(667,80)"/>
<path d="" fill="#000000" transform="translate(0,0)"/>
<path d="" fill="#B08202" transform="translate(0,0)"/>
<path d="" fill="#DEA104" transform="translate(0,0)"/>
<path d="" fill="#DAA204" transform="translate(0,0)"/>
<path d="" fill="#DAA707" transform="translate(0,0)"/>
<path d="" fill="#E29801" transform="translate(0,0)"/>
<path d="" fill="#E4AC09" transform="translate(0,0)"/>
<path d="" fill="#E1AA08" transform="translate(0,0)"/>
<path d="" fill="#E18F0B" transform="translate(0,0)"/>
<path d="" fill="#E3AB06" transform="translate(0,0)"/>
<path d="" fill="#E19202" transform="translate(0,0)"/>
<path d="" fill="#DFA808" transform="translate(0,0)"/>
<path d="" fill="#FD7900" transform="translate(0,0)"/>
<path d="" fill="#FA7C00" transform="translate(0,0)"/>
<path d="" fill="#E1A609" transform="translate(0,0)"/>
<path d="" fill="#F77800" transform="translate(0,0)"/>
<path d="" fill="#F97700" transform="translate(0,0)"/>
<path d="" fill="#FB7702" transform="translate(0,0)"/>
<path d="" fill="#FB7601" transform="translate(0,0)"/>
<path d="" fill="#FC7900" transform="translate(0,0)"/>
<path d="" fill="#FC7600" transform="translate(0,0)"/>
<path d="" fill="#FC7800" transform="translate(0,0)"/>
<path d="" fill="#FA7700" transform="translate(0,0)"/>
<path d="" fill="#FA7702" transform="translate(0,0)"/>
<path d="" fill="#E99407" transform="translate(0,0)"/>
<path d="" fill="#FE7901" transform="translate(0,0)"/>
<path d="" fill="#FC7800" transform="translate(0,0)"/>
<path d="" fill="#E79402" transform="translate(0,0)"/>
<path d="" fill="#FB7A01" transform="translate(0,0)"/>
<path d="" fill="#F78201" transform="translate(0,0)"/>
<path d="" fill="#F88200" transform="translate(0,0)"/>
<path d="" fill="#FC7904" transform="translate(0,0)"/>
<path d="" fill="#FA7B00" transform="translate(0,0)"/>
<path d="" fill="#E89003" transform="translate(0,0)"/>
<path d="" fill="#FC7D00" transform="translate(0,0)"/>
<path d="" fill="#E38204" transform="translate(0,0)"/>
<path d="" fill="#DB7A02" transform="translate(0,0)"/>
<path d="" fill="#D97A06" transform="translate(0,0)"/>
<path d="" fill="#CE7805" transform="translate(0,0)"/>
<path d="" fill="#E48204" transform="translate(0,0)"/>
<path d="" fill="#EA9100" transform="translate(0,0)"/>
<path d="" fill="#FC7C00" transform="translate(0,0)"/>
<path d="" fill="#FB8602" transform="translate(0,0)"/>
<path d="" fill="#F68D07" transform="translate(0,0)"/>
<path d="" fill="#F28A03" transform="translate(0,0)"/>
<path d="" fill="#F78302" transform="translate(0,0)"/>
<path d="" fill="#F58B02" transform="translate(0,0)"/>
<path d="" fill="#FD8101" transform="translate(0,0)"/>
<path d="" fill="#FD7F02" transform="translate(0,0)"/>
<path d="" fill="#F99106" transform="translate(0,0)"/>
<path d="" fill="#F89005" transform="translate(0,0)"/>
<path d="" fill="#FB7E01" transform="translate(0,0)"/>
<path d="" fill="#FC9403" transform="translate(0,0)"/>
<path d="" fill="#E98A01" transform="translate(0,0)"/>
<path d="" fill="#EA8A01" transform="translate(0,0)"/>
<path d="" fill="#FE8C03" transform="translate(0,0)"/>
<path d="" fill="#FE8E03" transform="translate(0,0)"/>
<path d="" fill="#EA9000" transform="translate(0,0)"/>
<path d="" fill="#F88200" transform="translate(0,0)"/>
<path d="" fill="#FF9502" transform="translate(0,0)"/>
<path d="" fill="#FC8300" transform="translate(0,0)"/>
<path d="" fill="#EA8C01" transform="translate(0,0)"/>
<path d="" fill="#FC7F01" transform="translate(0,0)"/>
<path d="" fill="#EE9201" transform="translate(0,0)"/>
<path d="" fill="#FF8701" transform="translate(0,0)"/>
<path d="" fill="#FD9603" transform="translate(0,0)"/>
<path d="" fill="#FF9701" transform="translate(0,0)"/>
<path d="" fill="#FE7D02" transform="translate(0,0)"/>
<path d="" fill="#FF8900" transform="translate(0,0)"/>
<path d="" fill="#FF9100" transform="translate(0,0)"/>
<path d="" fill="#FD7D01" transform="translate(0,0)"/>
<path d="" fill="#FA7F00" transform="translate(0,0)"/>
<path d="" fill="#FF8500" transform="translate(0,0)"/>
<path d="" fill="#FF8600" transform="translate(0,0)"/>
<path d="" fill="#FE8500" transform="translate(0,0)"/>
<path d="" fill="#FF8701" transform="translate(0,0)"/>
<path d="" fill="#FF8801" transform="translate(0,0)"/>
<path d="" fill="#FF8700" transform="translate(0,0)"/>
<path d="" fill="#FE8B00" transform="translate(0,0)"/>
<path d="" fill="#FE8A00" transform="translate(0,0)"/>
<path d="" fill="#FF8C00" transform="translate(0,0)"/>
<path d="" fill="#FF8F02" transform="translate(0,0)"/>
<path d="" fill="#FF9200" transform="translate(0,0)"/>
<path d="" fill="#FE9201" transform="translate(0,0)"/>
<path d="" fill="#FF9202" transform="translate(0,0)"/>
<path d="" fill="#FC7F00" transform="translate(0,0)"/>
<path d="" fill="#FE7F00" transform="translate(0,0)"/>
<path d="" fill="#F09403" transform="translate(0,0)"/>
<path d="" fill="#E58E03" transform="translate(0,0)"/>
<path d="" fill="#FD8002" transform="translate(0,0)"/>
<path d="" fill="#F19803" transform="translate(0,0)"/>
<path d="" fill="#FD9A00" transform="translate(0,0)"/>
<path d="" fill="#FF7F00" transform="translate(0,0)"/>
<path d="" fill="#FF9B01" transform="translate(0,0)"/>
<path d="" fill="#FB8402" transform="translate(0,0)"/>
<path d="" fill="#FD8003" transform="translate(0,0)"/>
<path d="" fill="#FA8301" transform="translate(0,0)"/>
<path d="" fill="#FD8203" transform="translate(0,0)"/>
<path d="" fill="#FE8700" transform="translate(0,0)"/>
<path d="" fill="#FE9002" transform="translate(0,0)"/>
<path d="" fill="#FA8201" transform="translate(0,0)"/>
<path d="" fill="#F88202" transform="translate(0,0)"/>
<path d="" fill="#FF8803" transform="translate(0,0)"/>
<path d="" fill="#FF8701" transform="translate(0,0)"/>
<path d="" fill="#FE9000" transform="translate(0,0)"/>
<path d="" fill="#F49E01" transform="translate(0,0)"/>
<path d="" fill="#FD8801" transform="translate(0,0)"/>
<path d="" fill="#FE8801" transform="translate(0,0)"/>
<path d="" fill="#FD9700" transform="translate(0,0)"/>
<path d="" fill="#E1930D" transform="translate(0,0)"/>
<path d="" fill="#FE8C03" transform="translate(0,0)"/>
<path d="" fill="#FD8A00" transform="translate(0,0)"/>
<path d="" fill="#FB9E00" transform="translate(0,0)"/>
<path d="" fill="#FB8B00" transform="translate(0,0)"/>
<path d="" fill="#FC8B02" transform="translate(0,0)"/>
<path d="" fill="#E4920E" transform="translate(0,0)"/>
<path d="" fill="#F28108" transform="translate(0,0)"/>
<path d="" fill="#DF910F" transform="translate(0,0)"/>
<path d="" fill="#F8940C" transform="translate(0,0)"/>
<path d="" fill="#FE9901" transform="translate(0,0)"/>
<path d="" fill="#FE9A01" transform="translate(0,0)"/>
<path d="" fill="#F58009" transform="translate(0,0)"/>
<path d="" fill="#F38008" transform="translate(0,0)"/>
<path d="" fill="#ED8109" transform="translate(0,0)"/>
<path d="" fill="#FAA701" transform="translate(0,0)"/>
<path d="" fill="#F9A601" transform="translate(0,0)"/>
<path d="" fill="#EA840E" transform="translate(0,0)"/>
<path d="" fill="#F89511" transform="translate(0,0)"/>
<path d="" fill="#FFA202" transform="translate(0,0)"/>
<path d="" fill="#FAA702" transform="translate(0,0)"/>
<path d="" fill="#FAA900" transform="translate(0,0)"/>
<path d="" fill="#FF9402" transform="translate(0,0)"/>
<path d="" fill="#E8810D" transform="translate(0,0)"/>
<path d="" fill="#FE9801" transform="translate(0,0)"/>
<path d="" fill="#FE9402" transform="translate(0,0)"/>
<path d="" fill="#E57C16" transform="translate(0,0)"/>
<path d="" fill="#FEA002" transform="translate(0,0)"/>
<path d="" fill="#17457C" transform="translate(0,0)"/>
<path d="" fill="#134887" transform="translate(0,0)"/>
<path d="" fill="#FA9F03" transform="translate(0,0)"/>
<path d="" fill="#465F77" transform="translate(0,0)"/>
<path d="" fill="#144886" transform="translate(0,0)"/>
<path d="" fill="#164B87" transform="translate(0,0)"/>
<path d="" fill="#295889" transform="translate(0,0)"/>
<path d="" fill="#F99906" transform="translate(0,0)"/>
<path d="" fill="#FB9C05" transform="translate(0,0)"/>
<path d="" fill="#FB9C04" transform="translate(0,0)"/>
<path d="" fill="#FB9F04" transform="translate(0,0)"/>
<path d="" fill="#FBA003" transform="translate(0,0)"/>
<path d="" fill="#FDA003" transform="translate(0,0)"/>
<path d="" fill="#FCA204" transform="translate(0,0)"/>
<path d="" fill="#FCA108" transform="translate(0,0)"/>
<path d="" fill="#FBA407" transform="translate(0,0)"/>
<path d="" fill="#FD9F05" transform="translate(0,0)"/>
<path d="" fill="#FEA303" transform="translate(0,0)"/>
<path d="" fill="#FFA204" transform="translate(0,0)"/>
<path d="" fill="#FCA404" transform="translate(0,0)"/>
<path d="" fill="#FAAD06" transform="translate(0,0)"/>
<path d="" fill="#FBAC06" transform="translate(0,0)"/>
<path d="" fill="#F3A906" transform="translate(0,0)"/>
<path d="" fill="#F4A909" transform="translate(0,0)"/>
<path d="" fill="#EFA307" transform="translate(0,0)"/>
<path d="" fill="#EBA206" transform="translate(0,0)"/>
<path d="" fill="#154987" transform="translate(0,0)"/>
<path d="" fill="#CB8D07" transform="translate(0,0)"/>
<path d="" fill="#154B8B" transform="translate(0,0)"/>
<path d="" fill="#B1743C" transform="translate(0,0)"/>
<path d="" fill="#124C92" transform="translate(0,0)"/>
<path d="" fill="#124D93" transform="translate(0,0)"/>
<path d="" fill="#21558F" transform="translate(0,0)"/>
<path d="" fill="#22568F" transform="translate(0,0)"/>
<path d="" fill="#215693" transform="translate(0,0)"/>
<path d="" fill="#806553" transform="translate(0,0)"/>
<path d="" fill="#1F5493" transform="translate(0,0)"/>
<path d="" fill="#6E6262" transform="translate(0,0)"/>
<path d="" fill="#134F92" transform="translate(0,0)"/>
<path d="" fill="#124E94" transform="translate(0,0)"/>
<path d="" fill="#155296" transform="translate(0,0)"/>
<path d="" fill="#155298" transform="translate(0,0)"/>
<path d="" fill="#18549A" transform="translate(0,0)"/>
<path d="" fill="#104786" transform="translate(0,0)"/>
<path d="" fill="#F29A0C" transform="translate(0,0)"/>
<path d="" fill="#E69415" transform="translate(0,0)"/>
<path d="" fill="#D89E04" transform="translate(0,0)"/>
<path d="" fill="#0E478B" transform="translate(0,0)"/>
<path d="" fill="#0D478E" transform="translate(0,0)"/>
<path d="" fill="#E29A1A" transform="translate(0,0)"/>
<path d="" fill="#E99E14" transform="translate(0,0)"/>
<path d="" fill="#EEA110" transform="translate(0,0)"/>
<path d="" fill="#EEA20E" transform="translate(0,0)"/>
<path d="" fill="#F3A703" transform="translate(0,0)"/>
<path d="" fill="#F5A803" transform="translate(0,0)"/>
<path d="" fill="#F3AB03" transform="translate(0,0)"/>
<path d="" fill="#F1AA02" transform="translate(0,0)"/>
<path d="" fill="#F0AB02" transform="translate(0,0)"/>
<path d="" fill="#DFA103" transform="translate(0,0)"/>
<path d="" fill="#DBA003" transform="translate(0,0)"/>
<path d="" fill="#0D488C" transform="translate(0,0)"/>
<path d="" fill="#D89E04" transform="translate(0,0)"/>
<path d="" fill="#E4A603" transform="translate(0,0)"/>
<path d="" fill="#D89B04" transform="translate(0,0)"/>
<path d="" fill="#CD9305" transform="translate(0,0)"/>
<path d="" fill="#0E4992" transform="translate(0,0)"/>
<path d="" fill="#58666E" transform="translate(0,0)"/>
<path d="" fill="#566571" transform="translate(0,0)"/>
<path d="" fill="#646B67" transform="translate(0,0)"/>
<path d="" fill="#60696C" transform="translate(0,0)"/>
<path d="" fill="#44627F" transform="translate(0,0)"/>
<path d="" fill="#27588F" transform="translate(0,0)"/>
<path d="" fill="#315B89" transform="translate(0,0)"/>
<path d="" fill="#27568F" transform="translate(0,0)"/>
<path d="" fill="#265890" transform="translate(0,0)"/>
<path d="" fill="#265A92" transform="translate(0,0)"/>
<path d="" fill="#245991" transform="translate(0,0)"/>
<path d="" fill="#235893" transform="translate(0,0)"/>
<path d="" fill="#215995" transform="translate(0,0)"/>
<path d="" fill="#46637A" transform="translate(0,0)"/>
<path d="" fill="#195598" transform="translate(0,0)"/>
<path d="" fill="#14539B" transform="translate(0,0)"/>
<path d="" fill="#12569F" transform="translate(0,0)"/>
<path d="" fill="#0B4991" transform="translate(0,0)"/>
<path d="" fill="#2F5B88" transform="translate(0,0)"/>
<path d="" fill="#0C4A90" transform="translate(0,0)"/>
<path d="" fill="#2C5D8A" transform="translate(0,0)"/>
<path d="" fill="#2B5D8C" transform="translate(0,0)"/>
<path d="" fill="#104D92" transform="translate(0,0)"/>
<path d="" fill="#245A90" transform="translate(0,0)"/>
<path d="" fill="#235B92" transform="translate(0,0)"/>
<path d="" fill="#255C90" transform="translate(0,0)"/>
<path d="" fill="#205A96" transform="translate(0,0)"/>
<path d="" fill="#215891" transform="translate(0,0)"/>
<path d="" fill="#0F4D93" transform="translate(0,0)"/>
<path d="" fill="#E2BA14" transform="translate(0,0)"/>
<path d="" fill="#DCB71D" transform="translate(0,0)"/>
<path d="" fill="#C8A40A" transform="translate(0,0)"/>
<path d="" fill="#0F4A8F" transform="translate(0,0)"/>
<path d="" fill="#235993" transform="translate(0,0)"/>
<path d="" fill="#D7B008" transform="translate(0,0)"/>
<path d="" fill="#225892" transform="translate(0,0)"/>
<path d="" fill="#114A8D" transform="translate(0,0)"/>
<path d="" fill="#1F5893" transform="translate(0,0)"/>
<path d="" fill="#DDB30A" transform="translate(0,0)"/>
<path d="" fill="#EABD0A" transform="translate(0,0)"/>
<path d="" fill="#E9C00E" transform="translate(0,0)"/>
<path d="" fill="#215A93" transform="translate(0,0)"/>
<path d="" fill="#EBC20D" transform="translate(0,0)"/>
<path d="" fill="#DFBE20" transform="translate(0,0)"/>
<path d="" fill="#E9C20D" transform="translate(0,0)"/>
<path d="" fill="#1C5593" transform="translate(0,0)"/>
<path d="" fill="#E8BC10" transform="translate(0,0)"/>
<path d="" fill="#EAC310" transform="translate(0,0)"/>
<path d="" fill="#1E5893" transform="translate(0,0)"/>
<path d="" fill="#1F5992" transform="translate(0,0)"/>
<path d="" fill="#0E4B91" transform="translate(0,0)"/>
<path d="" fill="#1B5794" transform="translate(0,0)"/>
<path d="" fill="#1D5694" transform="translate(0,0)"/>
<path d="" fill="#EAC216" transform="translate(0,0)"/>
<path d="" fill="#24588F" transform="translate(0,0)"/>
<path d="" fill="#0E498E" transform="translate(0,0)"/>
<path d="" fill="#EFC411" transform="translate(0,0)"/>
<path d="" fill="#F3C411" transform="translate(0,0)"/>
<path d="" fill="#ECC415" transform="translate(0,0)"/>
<path d="" fill="#265C91" transform="translate(0,0)"/>
<path d="" fill="#265A90" transform="translate(0,0)"/>
<path d="" fill="#ECC40F" transform="translate(0,0)"/>
<path d="" fill="#23578E" transform="translate(0,0)"/>
<path d="" fill="#E3B90A" transform="translate(0,0)"/>
<path d="" fill="#E0B80A" transform="translate(0,0)"/>
<path d="" fill="#F4CA0B" transform="translate(0,0)"/>
<path d="" fill="#F5CA09" transform="translate(0,0)"/>
<path d="" fill="#0F488C" transform="translate(0,0)"/>
<path d="" fill="#23588C" transform="translate(0,0)"/>
<path d="" fill="#F3C70A" transform="translate(0,0)"/>
<path d="" fill="#0C4A93" transform="translate(0,0)"/>
<path d="" fill="#20558C" transform="translate(0,0)"/>
<path d="" fill="#EFC40A" transform="translate(0,0)"/>
<path d="" fill="#0E4B91" transform="translate(0,0)"/>
<path d="" fill="#1D538D" transform="translate(0,0)"/>
<path d="" fill="#E7BF0B" transform="translate(0,0)"/>
<path d="" fill="#D0B01C" transform="translate(0,0)"/>
<path d="" fill="#144E8C" transform="translate(0,0)"/>
<path d="" fill="#164D8A" transform="translate(0,0)"/>
<path d="" fill="#144B86" transform="translate(0,0)"/>
<path d="" fill="#0E498C" transform="translate(0,0)"/>
<path d="" fill="#0F4B8A" transform="translate(0,0)"/>
<path d="" fill="#104A8E" transform="translate(0,0)"/>
<path d="" fill="#0B488C" transform="translate(0,0)"/>
<path d="" fill="#124989" transform="translate(0,0)"/>
<path d="" fill="#0D4A89" transform="translate(0,0)"/>
<path d="" fill="#151000" transform="translate(0,0)"/>
<path d="" fill="#0F4686" transform="translate(0,0)"/>
<path d="" fill="#0E4787" transform="translate(0,0)"/>
<path d="" fill="#094891" transform="translate(0,0)"/>
<path d="" fill="#0D488B" transform="translate(0,0)"/>
<path d="" fill="#0C478B" transform="translate(0,0)"/>
<path d="" fill="#0E468A" transform="translate(0,0)"/>
<path d="" fill="#0D4589" transform="translate(0,0)"/>
<path d="" fill="#094589" transform="translate(0,0)"/>
<path d="" fill="#0E4689" transform="translate(0,0)"/>
<path d="" fill="#0C4688" transform="translate(0,0)"/>
<path d="" fill="#0F478C" transform="translate(0,0)"/>
<path d="" fill="#10478B" transform="translate(0,0)"/>
<path d="" fill="#104887" transform="translate(0,0)"/>
<path d="" fill="#0D4080" transform="translate(0,0)"/>
<path d="" fill="#104484" transform="translate(0,0)"/>
<path d="" fill="#0E4382" transform="translate(0,0)"/>
</svg>
